<?xml version="1.0" encoding="us-ascii" standalone="no"?><svg xmlns="http://www.w3.org/2000/svg" xmlns:xlink="http://www.w3.org/1999/xlink" contentStyleType="text/css" height="486px" preserveAspectRatio="none" style="width:1894px;height:486px;background:#FFFFFF;" version="1.1" viewBox="0 0 1894 486" width="1894px" zoomAndPan="magnify"><defs/><g><!--class App--><g id="elem_App"><rect codeLine="1" fill="#F1F1F1" height="48" id="App" rx="2.5" ry="2.5" style="stroke:#181818;stroke-width:0.5;" width="62" x="1014" y="7"/><ellipse cx="1029" cy="23" fill="#ADD1B2" rx="11" ry="11" style="stroke:#181818;stroke-width:1.0;"/><path d="M1031.3438,18.6719 C1030.4063,18.2344 1029.8125,18.0938 1028.9375,18.0938 C1026.3125,18.0938 1024.3125,20.1719 1024.3125,22.8906 L1024.3125,24.0156 C1024.3125,26.5938 1026.4219,28.4844 1029.3125,28.4844 C1030.5313,28.4844 1031.6875,28.1875 1032.4375,27.6406 C1033.0156,27.2344 1033.3438,26.7813 1033.3438,26.3906 C1033.3438,25.9375 1032.9531,25.5469 1032.4844,25.5469 C1032.2656,25.5469 1032.0625,25.625 1031.875,25.8125 C1031.4219,26.2969 1031.4219,26.2969 1031.2344,26.3906 C1030.8125,26.6563 1030.125,26.7813 1029.3594,26.7813 C1027.3125,26.7813 1026.0156,25.6875 1026.0156,23.9844 L1026.0156,22.8906 C1026.0156,21.1094 1027.2656,19.7969 1029,19.7969 C1029.5781,19.7969 1030.1875,19.9531 1030.6563,20.2031 C1031.1406,20.4844 1031.3125,20.7031 1031.4063,21.1094 C1031.4688,21.5156 1031.5,21.6406 1031.6406,21.7656 C1031.7813,21.9063 1032.0156,22.0156 1032.2344,22.0156 C1032.5,22.0156 1032.7656,21.875 1032.9375,21.6563 C1033.0469,21.5 1033.0781,21.3125 1033.0781,20.8906 L1033.0781,19.4688 C1033.0781,19.0313 1033.0625,18.9063 1032.9688,18.75 C1032.8125,18.4844 1032.5313,18.3438 1032.2344,18.3438 C1031.9375,18.3438 1031.7344,18.4375 1031.5156,18.75 L1031.3438,18.6719 Z " fill="#000000"/><text fill="#000000" font-family="sans-serif" font-size="14" lengthAdjust="spacing" textLength="30" x="1043" y="27.8467">App</text><line style="stroke:#181818;stroke-width:0.5;" x1="1015" x2="1075" y1="39" y2="39"/><line style="stroke:#181818;stroke-width:0.5;" x1="1015" x2="1075" y1="47" y2="47"/></g><!--class Navbar--><g id="elem_Navbar"><rect codeLine="4" fill="#F1F1F1" height="48" id="Navbar" rx="2.5" ry="2.5" style="stroke:#181818;stroke-width:0.5;" width="82" x="954" y="132"/><ellipse cx="969" cy="148" fill="#ADD1B2" rx="11" ry="11" style="stroke:#181818;stroke-width:1.0;"/><path d="M971.3438,143.6719 C970.4063,143.2344 969.8125,143.0938 968.9375,143.0938 C966.3125,143.0938 964.3125,145.1719 964.3125,147.8906 L964.3125,149.0156 C964.3125,151.5938 966.4219,153.4844 969.3125,153.4844 C970.5313,153.4844 971.6875,153.1875 972.4375,152.6406 C973.0156,152.2344 973.3438,151.7813 973.3438,151.3906 C973.3438,150.9375 972.9531,150.5469 972.4844,150.5469 C972.2656,150.5469 972.0625,150.625 971.875,150.8125 C971.4219,151.2969 971.4219,151.2969 971.2344,151.3906 C970.8125,151.6563 970.125,151.7813 969.3594,151.7813 C967.3125,151.7813 966.0156,150.6875 966.0156,148.9844 L966.0156,147.8906 C966.0156,146.1094 967.2656,144.7969 969,144.7969 C969.5781,144.7969 970.1875,144.9531 970.6563,145.2031 C971.1406,145.4844 971.3125,145.7031 971.4063,146.1094 C971.4688,146.5156 971.5,146.6406 971.6406,146.7656 C971.7813,146.9063 972.0156,147.0156 972.2344,147.0156 C972.5,147.0156 972.7656,146.875 972.9375,146.6563 C973.0469,146.5 973.0781,146.3125 973.0781,145.8906 L973.0781,144.4688 C973.0781,144.0313 973.0625,143.9063 972.9688,143.75 C972.8125,143.4844 972.5313,143.3438 972.2344,143.3438 C971.9375,143.3438 971.7344,143.4375 971.5156,143.75 L971.3438,143.6719 Z " fill="#000000"/><text fill="#000000" font-family="sans-serif" font-size="14" lengthAdjust="spacing" textLength="50" x="983" y="152.8467">Navbar</text><line style="stroke:#181818;stroke-width:0.5;" x1="955" x2="1035" y1="164" y2="164"/><line style="stroke:#181818;stroke-width:0.5;" x1="955" x2="1035" y1="172" y2="172"/></g><!--class Login--><g id="elem_Login"><rect codeLine="7" fill="#F1F1F1" height="80.5938" id="Login" rx="2.5" ry="2.5" style="stroke:#181818;stroke-width:0.5;" width="138" x="7" y="273"/><ellipse cx="52.25" cy="289" fill="#ADD1B2" rx="11" ry="11" style="stroke:#181818;stroke-width:1.0;"/><path d="M54.5938,284.6719 C53.6563,284.2344 53.0625,284.0938 52.1875,284.0938 C49.5625,284.0938 47.5625,286.1719 47.5625,288.8906 L47.5625,290.0156 C47.5625,292.5938 49.6719,294.4844 52.5625,294.4844 C53.7813,294.4844 54.9375,294.1875 55.6875,293.6406 C56.2656,293.2344 56.5938,292.7813 56.5938,292.3906 C56.5938,291.9375 56.2031,291.5469 55.7344,291.5469 C55.5156,291.5469 55.3125,291.625 55.125,291.8125 C54.6719,292.2969 54.6719,292.2969 54.4844,292.3906 C54.0625,292.6563 53.375,292.7813 52.6094,292.7813 C50.5625,292.7813 49.2656,291.6875 49.2656,289.9844 L49.2656,288.8906 C49.2656,287.1094 50.5156,285.7969 52.25,285.7969 C52.8281,285.7969 53.4375,285.9531 53.9063,286.2031 C54.3906,286.4844 54.5625,286.7031 54.6563,287.1094 C54.7188,287.5156 54.75,287.6406 54.8906,287.7656 C55.0313,287.9063 55.2656,288.0156 55.4844,288.0156 C55.75,288.0156 56.0156,287.875 56.1875,287.6563 C56.2969,287.5 56.3281,287.3125 56.3281,286.8906 L56.3281,285.4688 C56.3281,285.0313 56.3125,284.9063 56.2188,284.75 C56.0625,284.4844 55.7813,284.3438 55.4844,284.3438 C55.1875,284.3438 54.9844,284.4375 54.7656,284.75 L54.5938,284.6719 Z " fill="#000000"/><text fill="#000000" font-family="sans-serif" font-size="14" lengthAdjust="spacing" textLength="39" x="72.75" y="293.8467">Login</text><line style="stroke:#181818;stroke-width:0.5;" x1="8" x2="144" y1="305" y2="305"/><line style="stroke:#181818;stroke-width:0.5;" x1="8" x2="144" y1="313" y2="313"/><ellipse cx="18" cy="326.6484" fill="#84BE84" rx="3" ry="3" style="stroke:#038048;stroke-width:1.0;"/><text fill="#000000" font-family="sans-serif" font-size="14" lengthAdjust="spacing" textLength="112" x="27" y="329.9951">handleChange()</text><ellipse cx="18" cy="342.9453" fill="#84BE84" rx="3" ry="3" style="stroke:#038048;stroke-width:1.0;"/><text fill="#000000" font-family="sans-serif" font-size="14" lengthAdjust="spacing" textLength="110" x="27" y="346.292">handleSubmit()</text></g><!--class Signup--><g id="elem_Signup"><rect codeLine="12" fill="#F1F1F1" height="80.5938" id="Signup" rx="2.5" ry="2.5" style="stroke:#181818;stroke-width:0.5;" width="138" x="180" y="273"/><ellipse cx="220.65" cy="289" fill="#ADD1B2" rx="11" ry="11" style="stroke:#181818;stroke-width:1.0;"/><path d="M222.9938,284.6719 C222.0563,284.2344 221.4625,284.0938 220.5875,284.0938 C217.9625,284.0938 215.9625,286.1719 215.9625,288.8906 L215.9625,290.0156 C215.9625,292.5938 218.0719,294.4844 220.9625,294.4844 C222.1813,294.4844 223.3375,294.1875 224.0875,293.6406 C224.6656,293.2344 224.9938,292.7813 224.9938,292.3906 C224.9938,291.9375 224.6031,291.5469 224.1344,291.5469 C223.9156,291.5469 223.7125,291.625 223.525,291.8125 C223.0719,292.2969 223.0719,292.2969 222.8844,292.3906 C222.4625,292.6563 221.775,292.7813 221.0094,292.7813 C218.9625,292.7813 217.6656,291.6875 217.6656,289.9844 L217.6656,288.8906 C217.6656,287.1094 218.9156,285.7969 220.65,285.7969 C221.2281,285.7969 221.8375,285.9531 222.3063,286.2031 C222.7906,286.4844 222.9625,286.7031 223.0563,287.1094 C223.1188,287.5156 223.15,287.6406 223.2906,287.7656 C223.4313,287.9063 223.6656,288.0156 223.8844,288.0156 C224.15,288.0156 224.4156,287.875 224.5875,287.6563 C224.6969,287.5 224.7281,287.3125 224.7281,286.8906 L224.7281,285.4688 C224.7281,285.0313 224.7125,284.9063 224.6188,284.75 C224.4625,284.4844 224.1813,284.3438 223.8844,284.3438 C223.5875,284.3438 223.3844,284.4375 223.1656,284.75 L222.9938,284.6719 Z " fill="#000000"/><text fill="#000000" font-family="sans-serif" font-size="14" lengthAdjust="spacing" textLength="49" x="240.35" y="293.8467">Signup</text><line style="stroke:#181818;stroke-width:0.5;" x1="181" x2="317" y1="305" y2="305"/><line style="stroke:#181818;stroke-width:0.5;" x1="181" x2="317" y1="313" y2="313"/><ellipse cx="191" cy="326.6484" fill="#84BE84" rx="3" ry="3" style="stroke:#038048;stroke-width:1.0;"/><text fill="#000000" font-family="sans-serif" font-size="14" lengthAdjust="spacing" textLength="112" x="200" y="329.9951">handleChange()</text><ellipse cx="191" cy="342.9453" fill="#84BE84" rx="3" ry="3" style="stroke:#038048;stroke-width:1.0;"/><text fill="#000000" font-family="sans-serif" font-size="14" lengthAdjust="spacing" textLength="110" x="200" y="346.292">handleSubmit()</text></g><!--class Profile--><g id="elem_Profile"><rect codeLine="17" fill="#F1F1F1" height="48" id="Profile" rx="2.5" ry="2.5" style="stroke:#181818;stroke-width:0.5;" width="79" x="353.5" y="289.5"/><ellipse cx="368.5" cy="305.5" fill="#ADD1B2" rx="11" ry="11" style="stroke:#181818;stroke-width:1.0;"/><path d="M370.8438,301.1719 C369.9063,300.7344 369.3125,300.5938 368.4375,300.5938 C365.8125,300.5938 363.8125,302.6719 363.8125,305.3906 L363.8125,306.5156 C363.8125,309.0938 365.9219,310.9844 368.8125,310.9844 C370.0313,310.9844 371.1875,310.6875 371.9375,310.1406 C372.5156,309.7344 372.8438,309.2813 372.8438,308.8906 C372.8438,308.4375 372.4531,308.0469 371.9844,308.0469 C371.7656,308.0469 371.5625,308.125 371.375,308.3125 C370.9219,308.7969 370.9219,308.7969 370.7344,308.8906 C370.3125,309.1563 369.625,309.2813 368.8594,309.2813 C366.8125,309.2813 365.5156,308.1875 365.5156,306.4844 L365.5156,305.3906 C365.5156,303.6094 366.7656,302.2969 368.5,302.2969 C369.0781,302.2969 369.6875,302.4531 370.1563,302.7031 C370.6406,302.9844 370.8125,303.2031 370.9063,303.6094 C370.9688,304.0156 371,304.1406 371.1406,304.2656 C371.2813,304.4063 371.5156,304.5156 371.7344,304.5156 C372,304.5156 372.2656,304.375 372.4375,304.1563 C372.5469,304 372.5781,303.8125 372.5781,303.3906 L372.5781,301.9688 C372.5781,301.5313 372.5625,301.4063 372.4688,301.25 C372.3125,300.9844 372.0313,300.8438 371.7344,300.8438 C371.4375,300.8438 371.2344,300.9375 371.0156,301.25 L370.8438,301.1719 Z " fill="#000000"/><text fill="#000000" font-family="sans-serif" font-size="14" lengthAdjust="spacing" textLength="47" x="382.5" y="310.3467">Profile</text><line style="stroke:#181818;stroke-width:0.5;" x1="354.5" x2="431.5" y1="321.5" y2="321.5"/><line style="stroke:#181818;stroke-width:0.5;" x1="354.5" x2="431.5" y1="329.5" y2="329.5"/></g><!--class Article--><g id="elem_Article"><rect codeLine="20" fill="#F1F1F1" height="96.8906" id="Article" rx="2.5" ry="2.5" style="stroke:#181818;stroke-width:0.5;" width="105" x="467.5" y="265"/><ellipse cx="493.75" cy="281" fill="#ADD1B2" rx="11" ry="11" style="stroke:#181818;stroke-width:1.0;"/><path d="M496.0938,276.6719 C495.1563,276.2344 494.5625,276.0938 493.6875,276.0938 C491.0625,276.0938 489.0625,278.1719 489.0625,280.8906 L489.0625,282.0156 C489.0625,284.5938 491.1719,286.4844 494.0625,286.4844 C495.2813,286.4844 496.4375,286.1875 497.1875,285.6406 C497.7656,285.2344 498.0938,284.7813 498.0938,284.3906 C498.0938,283.9375 497.7031,283.5469 497.2344,283.5469 C497.0156,283.5469 496.8125,283.625 496.625,283.8125 C496.1719,284.2969 496.1719,284.2969 495.9844,284.3906 C495.5625,284.6563 494.875,284.7813 494.1094,284.7813 C492.0625,284.7813 490.7656,283.6875 490.7656,281.9844 L490.7656,280.8906 C490.7656,279.1094 492.0156,277.7969 493.75,277.7969 C494.3281,277.7969 494.9375,277.9531 495.4063,278.2031 C495.8906,278.4844 496.0625,278.7031 496.1563,279.1094 C496.2188,279.5156 496.25,279.6406 496.3906,279.7656 C496.5313,279.9063 496.7656,280.0156 496.9844,280.0156 C497.25,280.0156 497.5156,279.875 497.6875,279.6563 C497.7969,279.5 497.8281,279.3125 497.8281,278.8906 L497.8281,277.4688 C497.8281,277.0313 497.8125,276.9063 497.7188,276.75 C497.5625,276.4844 497.2813,276.3438 496.9844,276.3438 C496.6875,276.3438 496.4844,276.4375 496.2656,276.75 L496.0938,276.6719 Z " fill="#000000"/><text fill="#000000" font-family="sans-serif" font-size="14" lengthAdjust="spacing" textLength="48" x="510.25" y="285.8467">Article</text><line style="stroke:#181818;stroke-width:0.5;" x1="468.5" x2="571.5" y1="297" y2="297"/><line style="stroke:#181818;stroke-width:0.5;" x1="468.5" x2="571.5" y1="305" y2="305"/><ellipse cx="478.5" cy="318.6484" fill="#84BE84" rx="3" ry="3" style="stroke:#038048;stroke-width:1.0;"/><text fill="#000000" font-family="sans-serif" font-size="14" lengthAdjust="spacing" textLength="74" x="487.5" y="321.9951">useState()</text><ellipse cx="478.5" cy="334.9453" fill="#84BE84" rx="3" ry="3" style="stroke:#038048;stroke-width:1.0;"/><text fill="#000000" font-family="sans-serif" font-size="14" lengthAdjust="spacing" textLength="79" x="487.5" y="338.292">useEffect()</text><ellipse cx="478.5" cy="351.2422" fill="#84BE84" rx="3" ry="3" style="stroke:#038048;stroke-width:1.0;"/><text fill="#000000" font-family="sans-serif" font-size="14" lengthAdjust="spacing" textLength="76" x="487.5" y="354.5889">axios.get()</text></g><!--class ArticlesList--><g id="elem_ArticlesList"><rect codeLine="26" fill="#F1F1F1" height="96.8906" id="ArticlesList" rx="2.5" ry="2.5" style="stroke:#181818;stroke-width:0.5;" width="113" x="607.5" y="265"/><ellipse cx="622.5" cy="281" fill="#ADD1B2" rx="11" ry="11" style="stroke:#181818;stroke-width:1.0;"/><path d="M624.8438,276.6719 C623.9063,276.2344 623.3125,276.0938 622.4375,276.0938 C619.8125,276.0938 617.8125,278.1719 617.8125,280.8906 L617.8125,282.0156 C617.8125,284.5938 619.9219,286.4844 622.8125,286.4844 C624.0313,286.4844 625.1875,286.1875 625.9375,285.6406 C626.5156,285.2344 626.8438,284.7813 626.8438,284.3906 C626.8438,283.9375 626.4531,283.5469 625.9844,283.5469 C625.7656,283.5469 625.5625,283.625 625.375,283.8125 C624.9219,284.2969 624.9219,284.2969 624.7344,284.3906 C624.3125,284.6563 623.625,284.7813 622.8594,284.7813 C620.8125,284.7813 619.5156,283.6875 619.5156,281.9844 L619.5156,280.8906 C619.5156,279.1094 620.7656,277.7969 622.5,277.7969 C623.0781,277.7969 623.6875,277.9531 624.1563,278.2031 C624.6406,278.4844 624.8125,278.7031 624.9063,279.1094 C624.9688,279.5156 625,279.6406 625.1406,279.7656 C625.2813,279.9063 625.5156,280.0156 625.7344,280.0156 C626,280.0156 626.2656,279.875 626.4375,279.6563 C626.5469,279.5 626.5781,279.3125 626.5781,278.8906 L626.5781,277.4688 C626.5781,277.0313 626.5625,276.9063 626.4688,276.75 C626.3125,276.4844 626.0313,276.3438 625.7344,276.3438 C625.4375,276.3438 625.2344,276.4375 625.0156,276.75 L624.8438,276.6719 Z " fill="#000000"/><text fill="#000000" font-family="sans-serif" font-size="14" lengthAdjust="spacing" textLength="81" x="636.5" y="285.8467">ArticlesList</text><line style="stroke:#181818;stroke-width:0.5;" x1="608.5" x2="719.5" y1="297" y2="297"/><line style="stroke:#181818;stroke-width:0.5;" x1="608.5" x2="719.5" y1="305" y2="305"/><ellipse cx="618.5" cy="318.6484" fill="#84BE84" rx="3" ry="3" style="stroke:#038048;stroke-width:1.0;"/><text fill="#000000" font-family="sans-serif" font-size="14" lengthAdjust="spacing" textLength="74" x="627.5" y="321.9951">useState()</text><ellipse cx="618.5" cy="334.9453" fill="#84BE84" rx="3" ry="3" style="stroke:#038048;stroke-width:1.0;"/><text fill="#000000" font-family="sans-serif" font-size="14" lengthAdjust="spacing" textLength="79" x="627.5" y="338.292">useEffect()</text><ellipse cx="618.5" cy="351.2422" fill="#84BE84" rx="3" ry="3" style="stroke:#038048;stroke-width:1.0;"/><text fill="#000000" font-family="sans-serif" font-size="14" lengthAdjust="spacing" textLength="76" x="627.5" y="354.5889">axios.get()</text></g><!--class Publish--><g id="elem_Publish"><rect codeLine="32" fill="#F1F1F1" height="96.8906" id="Publish" rx="2.5" ry="2.5" style="stroke:#181818;stroke-width:0.5;" width="136" x="756" y="265"/><ellipse cx="794.85" cy="281" fill="#ADD1B2" rx="11" ry="11" style="stroke:#181818;stroke-width:1.0;"/><path d="M797.1938,276.6719 C796.2563,276.2344 795.6625,276.0938 794.7875,276.0938 C792.1625,276.0938 790.1625,278.1719 790.1625,280.8906 L790.1625,282.0156 C790.1625,284.5938 792.2719,286.4844 795.1625,286.4844 C796.3813,286.4844 797.5375,286.1875 798.2875,285.6406 C798.8656,285.2344 799.1938,284.7813 799.1938,284.3906 C799.1938,283.9375 798.8031,283.5469 798.3344,283.5469 C798.1156,283.5469 797.9125,283.625 797.725,283.8125 C797.2719,284.2969 797.2719,284.2969 797.0844,284.3906 C796.6625,284.6563 795.975,284.7813 795.2094,284.7813 C793.1625,284.7813 791.8656,283.6875 791.8656,281.9844 L791.8656,280.8906 C791.8656,279.1094 793.1156,277.7969 794.85,277.7969 C795.4281,277.7969 796.0375,277.9531 796.5063,278.2031 C796.9906,278.4844 797.1625,278.7031 797.2563,279.1094 C797.3188,279.5156 797.35,279.6406 797.4906,279.7656 C797.6313,279.9063 797.8656,280.0156 798.0844,280.0156 C798.35,280.0156 798.6156,279.875 798.7875,279.6563 C798.8969,279.5 798.9281,279.3125 798.9281,278.8906 L798.9281,277.4688 C798.9281,277.0313 798.9125,276.9063 798.8188,276.75 C798.6625,276.4844 798.3813,276.3438 798.0844,276.3438 C797.7875,276.3438 797.5844,276.4375 797.3656,276.75 L797.1938,276.6719 Z " fill="#000000"/><text fill="#000000" font-family="sans-serif" font-size="14" lengthAdjust="spacing" textLength="51" x="814.15" y="285.8467">Publish</text><line style="stroke:#181818;stroke-width:0.5;" x1="757" x2="891" y1="297" y2="297"/><line style="stroke:#181818;stroke-width:0.5;" x1="757" x2="891" y1="305" y2="305"/><ellipse cx="767" cy="318.6484" fill="#84BE84" rx="3" ry="3" style="stroke:#038048;stroke-width:1.0;"/><text fill="#000000" font-family="sans-serif" font-size="14" lengthAdjust="spacing" textLength="74" x="776" y="321.9951">useState()</text><ellipse cx="767" cy="334.9453" fill="#84BE84" rx="3" ry="3" style="stroke:#038048;stroke-width:1.0;"/><text fill="#000000" font-family="sans-serif" font-size="14" lengthAdjust="spacing" textLength="110" x="776" y="338.292">handleSubmit()</text><ellipse cx="767" cy="351.2422" fill="#84BE84" rx="3" ry="3" style="stroke:#038048;stroke-width:1.0;"/><text fill="#000000" font-family="sans-serif" font-size="14" lengthAdjust="spacing" textLength="84" x="776" y="354.5889">axios.post()</text></g><!--class EditArticle--><g id="elem_EditArticle"><rect codeLine="38" fill="#F1F1F1" height="113.1875" id="EditArticle" rx="2.5" ry="2.5" style="stroke:#181818;stroke-width:0.5;" width="136" x="927" y="257"/><ellipse cx="954.15" cy="273" fill="#ADD1B2" rx="11" ry="11" style="stroke:#181818;stroke-width:1.0;"/><path d="M956.4938,268.6719 C955.5563,268.2344 954.9625,268.0938 954.0875,268.0938 C951.4625,268.0938 949.4625,270.1719 949.4625,272.8906 L949.4625,274.0156 C949.4625,276.5938 951.5719,278.4844 954.4625,278.4844 C955.6813,278.4844 956.8375,278.1875 957.5875,277.6406 C958.1656,277.2344 958.4938,276.7813 958.4938,276.3906 C958.4938,275.9375 958.1031,275.5469 957.6344,275.5469 C957.4156,275.5469 957.2125,275.625 957.025,275.8125 C956.5719,276.2969 956.5719,276.2969 956.3844,276.3906 C955.9625,276.6563 955.275,276.7813 954.5094,276.7813 C952.4625,276.7813 951.1656,275.6875 951.1656,273.9844 L951.1656,272.8906 C951.1656,271.1094 952.4156,269.7969 954.15,269.7969 C954.7281,269.7969 955.3375,269.9531 955.8063,270.2031 C956.2906,270.4844 956.4625,270.7031 956.5563,271.1094 C956.6188,271.5156 956.65,271.6406 956.7906,271.7656 C956.9313,271.9063 957.1656,272.0156 957.3844,272.0156 C957.65,272.0156 957.9156,271.875 958.0875,271.6563 C958.1969,271.5 958.2281,271.3125 958.2281,270.8906 L958.2281,269.4688 C958.2281,269.0313 958.2125,268.9063 958.1188,268.75 C957.9625,268.4844 957.6813,268.3438 957.3844,268.3438 C957.0875,268.3438 956.8844,268.4375 956.6656,268.75 L956.4938,268.6719 Z " fill="#000000"/><text fill="#000000" font-family="sans-serif" font-size="14" lengthAdjust="spacing" textLength="77" x="970.85" y="277.8467">EditArticle</text><line style="stroke:#181818;stroke-width:0.5;" x1="928" x2="1062" y1="289" y2="289"/><line style="stroke:#181818;stroke-width:0.5;" x1="928" x2="1062" y1="297" y2="297"/><ellipse cx="938" cy="310.6484" fill="#84BE84" rx="3" ry="3" style="stroke:#038048;stroke-width:1.0;"/><text fill="#000000" font-family="sans-serif" font-size="14" lengthAdjust="spacing" textLength="74" x="947" y="313.9951">useState()</text><ellipse cx="938" cy="326.9453" fill="#84BE84" rx="3" ry="3" style="stroke:#038048;stroke-width:1.0;"/><text fill="#000000" font-family="sans-serif" font-size="14" lengthAdjust="spacing" textLength="79" x="947" y="330.292">useEffect()</text><ellipse cx="938" cy="343.2422" fill="#84BE84" rx="3" ry="3" style="stroke:#038048;stroke-width:1.0;"/><text fill="#000000" font-family="sans-serif" font-size="14" lengthAdjust="spacing" textLength="110" x="947" y="346.5889">handleSubmit()</text><ellipse cx="938" cy="359.5391" fill="#84BE84" rx="3" ry="3" style="stroke:#038048;stroke-width:1.0;"/><text fill="#000000" font-family="sans-serif" font-size="14" lengthAdjust="spacing" textLength="76" x="947" y="362.8857">axios.put()</text></g><!--class CategoryComponent--><g id="elem_CategoryComponent"><rect codeLine="45" fill="#F1F1F1" height="96.8906" id="CategoryComponent" rx="2.5" ry="2.5" style="stroke:#181818;stroke-width:0.5;" width="184" x="1098" y="265"/><ellipse cx="1113" cy="281" fill="#ADD1B2" rx="11" ry="11" style="stroke:#181818;stroke-width:1.0;"/><path d="M1115.3438,276.6719 C1114.4063,276.2344 1113.8125,276.0938 1112.9375,276.0938 C1110.3125,276.0938 1108.3125,278.1719 1108.3125,280.8906 L1108.3125,282.0156 C1108.3125,284.5938 1110.4219,286.4844 1113.3125,286.4844 C1114.5313,286.4844 1115.6875,286.1875 1116.4375,285.6406 C1117.0156,285.2344 1117.3438,284.7813 1117.3438,284.3906 C1117.3438,283.9375 1116.9531,283.5469 1116.4844,283.5469 C1116.2656,283.5469 1116.0625,283.625 1115.875,283.8125 C1115.4219,284.2969 1115.4219,284.2969 1115.2344,284.3906 C1114.8125,284.6563 1114.125,284.7813 1113.3594,284.7813 C1111.3125,284.7813 1110.0156,283.6875 1110.0156,281.9844 L1110.0156,280.8906 C1110.0156,279.1094 1111.2656,277.7969 1113,277.7969 C1113.5781,277.7969 1114.1875,277.9531 1114.6563,278.2031 C1115.1406,278.4844 1115.3125,278.7031 1115.4063,279.1094 C1115.4688,279.5156 1115.5,279.6406 1115.6406,279.7656 C1115.7813,279.9063 1116.0156,280.0156 1116.2344,280.0156 C1116.5,280.0156 1116.7656,279.875 1116.9375,279.6563 C1117.0469,279.5 1117.0781,279.3125 1117.0781,278.8906 L1117.0781,277.4688 C1117.0781,277.0313 1117.0625,276.9063 1116.9688,276.75 C1116.8125,276.4844 1116.5313,276.3438 1116.2344,276.3438 C1115.9375,276.3438 1115.7344,276.4375 1115.5156,276.75 L1115.3438,276.6719 Z " fill="#000000"/><text fill="#000000" font-family="sans-serif" font-size="14" lengthAdjust="spacing" textLength="152" x="1127" y="285.8467">CategoryComponent</text><line style="stroke:#181818;stroke-width:0.5;" x1="1099" x2="1281" y1="297" y2="297"/><line style="stroke:#181818;stroke-width:0.5;" x1="1099" x2="1281" y1="305" y2="305"/><ellipse cx="1109" cy="318.6484" fill="#84BE84" rx="3" ry="3" style="stroke:#038048;stroke-width:1.0;"/><text fill="#000000" font-family="sans-serif" font-size="14" lengthAdjust="spacing" textLength="74" x="1118" y="321.9951">useState()</text><ellipse cx="1109" cy="334.9453" fill="#84BE84" rx="3" ry="3" style="stroke:#038048;stroke-width:1.0;"/><text fill="#000000" font-family="sans-serif" font-size="14" lengthAdjust="spacing" textLength="79" x="1118" y="338.292">useEffect()</text><ellipse cx="1109" cy="351.2422" fill="#84BE84" rx="3" ry="3" style="stroke:#038048;stroke-width:1.0;"/><text fill="#000000" font-family="sans-serif" font-size="14" lengthAdjust="spacing" textLength="76" x="1118" y="354.5889">axios.get()</text></g><!--class About--><g id="elem_About"><rect codeLine="51" fill="#F1F1F1" height="48" id="About" rx="2.5" ry="2.5" style="stroke:#181818;stroke-width:0.5;" width="76" x="1317" y="289.5"/><ellipse cx="1332" cy="305.5" fill="#ADD1B2" rx="11" ry="11" style="stroke:#181818;stroke-width:1.0;"/><path d="M1334.3438,301.1719 C1333.4063,300.7344 1332.8125,300.5938 1331.9375,300.5938 C1329.3125,300.5938 1327.3125,302.6719 1327.3125,305.3906 L1327.3125,306.5156 C1327.3125,309.0938 1329.4219,310.9844 1332.3125,310.9844 C1333.5313,310.9844 1334.6875,310.6875 1335.4375,310.1406 C1336.0156,309.7344 1336.3438,309.2813 1336.3438,308.8906 C1336.3438,308.4375 1335.9531,308.0469 1335.4844,308.0469 C1335.2656,308.0469 1335.0625,308.125 1334.875,308.3125 C1334.4219,308.7969 1334.4219,308.7969 1334.2344,308.8906 C1333.8125,309.1563 1333.125,309.2813 1332.3594,309.2813 C1330.3125,309.2813 1329.0156,308.1875 1329.0156,306.4844 L1329.0156,305.3906 C1329.0156,303.6094 1330.2656,302.2969 1332,302.2969 C1332.5781,302.2969 1333.1875,302.4531 1333.6563,302.7031 C1334.1406,302.9844 1334.3125,303.2031 1334.4063,303.6094 C1334.4688,304.0156 1334.5,304.1406 1334.6406,304.2656 C1334.7813,304.4063 1335.0156,304.5156 1335.2344,304.5156 C1335.5,304.5156 1335.7656,304.375 1335.9375,304.1563 C1336.0469,304 1336.0781,303.8125 1336.0781,303.3906 L1336.0781,301.9688 C1336.0781,301.5313 1336.0625,301.4063 1335.9688,301.25 C1335.8125,300.9844 1335.5313,300.8438 1335.2344,300.8438 C1334.9375,300.8438 1334.7344,300.9375 1334.5156,301.25 L1334.3438,301.1719 Z " fill="#000000"/><text fill="#000000" font-family="sans-serif" font-size="14" lengthAdjust="spacing" textLength="44" x="1346" y="310.3467">About</text><line style="stroke:#181818;stroke-width:0.5;" x1="1318" x2="1392" y1="321.5" y2="321.5"/><line style="stroke:#181818;stroke-width:0.5;" x1="1318" x2="1392" y1="329.5" y2="329.5"/></g><!--class Contact--><g id="elem_Contact"><rect codeLine="54" fill="#F1F1F1" height="48" id="Contact" rx="2.5" ry="2.5" style="stroke:#181818;stroke-width:0.5;" width="90" x="1428" y="289.5"/><ellipse cx="1443" cy="305.5" fill="#ADD1B2" rx="11" ry="11" style="stroke:#181818;stroke-width:1.0;"/><path d="M1445.3438,301.1719 C1444.4063,300.7344 1443.8125,300.5938 1442.9375,300.5938 C1440.3125,300.5938 1438.3125,302.6719 1438.3125,305.3906 L1438.3125,306.5156 C1438.3125,309.0938 1440.4219,310.9844 1443.3125,310.9844 C1444.5313,310.9844 1445.6875,310.6875 1446.4375,310.1406 C1447.0156,309.7344 1447.3438,309.2813 1447.3438,308.8906 C1447.3438,308.4375 1446.9531,308.0469 1446.4844,308.0469 C1446.2656,308.0469 1446.0625,308.125 1445.875,308.3125 C1445.4219,308.7969 1445.4219,308.7969 1445.2344,308.8906 C1444.8125,309.1563 1444.125,309.2813 1443.3594,309.2813 C1441.3125,309.2813 1440.0156,308.1875 1440.0156,306.4844 L1440.0156,305.3906 C1440.0156,303.6094 1441.2656,302.2969 1443,302.2969 C1443.5781,302.2969 1444.1875,302.4531 1444.6563,302.7031 C1445.1406,302.9844 1445.3125,303.2031 1445.4063,303.6094 C1445.4688,304.0156 1445.5,304.1406 1445.6406,304.2656 C1445.7813,304.4063 1446.0156,304.5156 1446.2344,304.5156 C1446.5,304.5156 1446.7656,304.375 1446.9375,304.1563 C1447.0469,304 1447.0781,303.8125 1447.0781,303.3906 L1447.0781,301.9688 C1447.0781,301.5313 1447.0625,301.4063 1446.9688,301.25 C1446.8125,300.9844 1446.5313,300.8438 1446.2344,300.8438 C1445.9375,300.8438 1445.7344,300.9375 1445.5156,301.25 L1445.3438,301.1719 Z " fill="#000000"/><text fill="#000000" font-family="sans-serif" font-size="14" lengthAdjust="spacing" textLength="58" x="1457" y="310.3467">Contact</text><line style="stroke:#181818;stroke-width:0.5;" x1="1429" x2="1517" y1="321.5" y2="321.5"/><line style="stroke:#181818;stroke-width:0.5;" x1="1429" x2="1517" y1="329.5" y2="329.5"/></g><!--class Home--><g id="elem_Home"><rect codeLine="57" fill="#F1F1F1" height="48" id="Home" rx="2.5" ry="2.5" style="stroke:#181818;stroke-width:0.5;" width="74" x="1553" y="289.5"/><ellipse cx="1568" cy="305.5" fill="#ADD1B2" rx="11" ry="11" style="stroke:#181818;stroke-width:1.0;"/><path d="M1570.3438,301.1719 C1569.4063,300.7344 1568.8125,300.5938 1567.9375,300.5938 C1565.3125,300.5938 1563.3125,302.6719 1563.3125,305.3906 L1563.3125,306.5156 C1563.3125,309.0938 1565.4219,310.9844 1568.3125,310.9844 C1569.5313,310.9844 1570.6875,310.6875 1571.4375,310.1406 C1572.0156,309.7344 1572.3438,309.2813 1572.3438,308.8906 C1572.3438,308.4375 1571.9531,308.0469 1571.4844,308.0469 C1571.2656,308.0469 1571.0625,308.125 1570.875,308.3125 C1570.4219,308.7969 1570.4219,308.7969 1570.2344,308.8906 C1569.8125,309.1563 1569.125,309.2813 1568.3594,309.2813 C1566.3125,309.2813 1565.0156,308.1875 1565.0156,306.4844 L1565.0156,305.3906 C1565.0156,303.6094 1566.2656,302.2969 1568,302.2969 C1568.5781,302.2969 1569.1875,302.4531 1569.6563,302.7031 C1570.1406,302.9844 1570.3125,303.2031 1570.4063,303.6094 C1570.4688,304.0156 1570.5,304.1406 1570.6406,304.2656 C1570.7813,304.4063 1571.0156,304.5156 1571.2344,304.5156 C1571.5,304.5156 1571.7656,304.375 1571.9375,304.1563 C1572.0469,304 1572.0781,303.8125 1572.0781,303.3906 L1572.0781,301.9688 C1572.0781,301.5313 1572.0625,301.4063 1571.9688,301.25 C1571.8125,300.9844 1571.5313,300.8438 1571.2344,300.8438 C1570.9375,300.8438 1570.7344,300.9375 1570.5156,301.25 L1570.3438,301.1719 Z " fill="#000000"/><text fill="#000000" font-family="sans-serif" font-size="14" lengthAdjust="spacing" textLength="42" x="1582" y="310.3467">Home</text><line style="stroke:#181818;stroke-width:0.5;" x1="1554" x2="1626" y1="321.5" y2="321.5"/><line style="stroke:#181818;stroke-width:0.5;" x1="1554" x2="1626" y1="329.5" y2="329.5"/></g><!--class Latest--><g id="elem_Latest"><rect codeLine="60" fill="#F1F1F1" height="96.8906" id="Latest" rx="2.5" ry="2.5" style="stroke:#181818;stroke-width:0.5;" width="105" x="1662.5" y="265"/><ellipse cx="1689.65" cy="281" fill="#ADD1B2" rx="11" ry="11" style="stroke:#181818;stroke-width:1.0;"/><path d="M1691.9938,276.6719 C1691.0563,276.2344 1690.4625,276.0938 1689.5875,276.0938 C1686.9625,276.0938 1684.9625,278.1719 1684.9625,280.8906 L1684.9625,282.0156 C1684.9625,284.5938 1687.0719,286.4844 1689.9625,286.4844 C1691.1813,286.4844 1692.3375,286.1875 1693.0875,285.6406 C1693.6656,285.2344 1693.9938,284.7813 1693.9938,284.3906 C1693.9938,283.9375 1693.6031,283.5469 1693.1344,283.5469 C1692.9156,283.5469 1692.7125,283.625 1692.525,283.8125 C1692.0719,284.2969 1692.0719,284.2969 1691.8844,284.3906 C1691.4625,284.6563 1690.775,284.7813 1690.0094,284.7813 C1687.9625,284.7813 1686.6656,283.6875 1686.6656,281.9844 L1686.6656,280.8906 C1686.6656,279.1094 1687.9156,277.7969 1689.65,277.7969 C1690.2281,277.7969 1690.8375,277.9531 1691.3063,278.2031 C1691.7906,278.4844 1691.9625,278.7031 1692.0563,279.1094 C1692.1188,279.5156 1692.15,279.6406 1692.2906,279.7656 C1692.4313,279.9063 1692.6656,280.0156 1692.8844,280.0156 C1693.15,280.0156 1693.4156,279.875 1693.5875,279.6563 C1693.6969,279.5 1693.7281,279.3125 1693.7281,278.8906 L1693.7281,277.4688 C1693.7281,277.0313 1693.7125,276.9063 1693.6188,276.75 C1693.4625,276.4844 1693.1813,276.3438 1692.8844,276.3438 C1692.5875,276.3438 1692.3844,276.4375 1692.1656,276.75 L1691.9938,276.6719 Z " fill="#000000"/><text fill="#000000" font-family="sans-serif" font-size="14" lengthAdjust="spacing" textLength="46" x="1706.35" y="285.8467">Latest</text><line style="stroke:#181818;stroke-width:0.5;" x1="1663.5" x2="1766.5" y1="297" y2="297"/><line style="stroke:#181818;stroke-width:0.5;" x1="1663.5" x2="1766.5" y1="305" y2="305"/><ellipse cx="1673.5" cy="318.6484" fill="#84BE84" rx="3" ry="3" style="stroke:#038048;stroke-width:1.0;"/><text fill="#000000" font-family="sans-serif" font-size="14" lengthAdjust="spacing" textLength="74" x="1682.5" y="321.9951">useState()</text><ellipse cx="1673.5" cy="334.9453" fill="#84BE84" rx="3" ry="3" style="stroke:#038048;stroke-width:1.0;"/><text fill="#000000" font-family="sans-serif" font-size="14" lengthAdjust="spacing" textLength="79" x="1682.5" y="338.292">useEffect()</text><ellipse cx="1673.5" cy="351.2422" fill="#84BE84" rx="3" ry="3" style="stroke:#038048;stroke-width:1.0;"/><text fill="#000000" font-family="sans-serif" font-size="14" lengthAdjust="spacing" textLength="76" x="1682.5" y="354.5889">axios.get()</text></g><!--class Display--><g id="elem_Display"><rect codeLine="66" fill="#F1F1F1" height="48" id="Display" rx="2.5" ry="2.5" style="stroke:#181818;stroke-width:0.5;" width="84" x="1803" y="289.5"/><ellipse cx="1818" cy="305.5" fill="#ADD1B2" rx="11" ry="11" style="stroke:#181818;stroke-width:1.0;"/><path d="M1820.3438,301.1719 C1819.4063,300.7344 1818.8125,300.5938 1817.9375,300.5938 C1815.3125,300.5938 1813.3125,302.6719 1813.3125,305.3906 L1813.3125,306.5156 C1813.3125,309.0938 1815.4219,310.9844 1818.3125,310.9844 C1819.5313,310.9844 1820.6875,310.6875 1821.4375,310.1406 C1822.0156,309.7344 1822.3438,309.2813 1822.3438,308.8906 C1822.3438,308.4375 1821.9531,308.0469 1821.4844,308.0469 C1821.2656,308.0469 1821.0625,308.125 1820.875,308.3125 C1820.4219,308.7969 1820.4219,308.7969 1820.2344,308.8906 C1819.8125,309.1563 1819.125,309.2813 1818.3594,309.2813 C1816.3125,309.2813 1815.0156,308.1875 1815.0156,306.4844 L1815.0156,305.3906 C1815.0156,303.6094 1816.2656,302.2969 1818,302.2969 C1818.5781,302.2969 1819.1875,302.4531 1819.6563,302.7031 C1820.1406,302.9844 1820.3125,303.2031 1820.4063,303.6094 C1820.4688,304.0156 1820.5,304.1406 1820.6406,304.2656 C1820.7813,304.4063 1821.0156,304.5156 1821.2344,304.5156 C1821.5,304.5156 1821.7656,304.375 1821.9375,304.1563 C1822.0469,304 1822.0781,303.8125 1822.0781,303.3906 L1822.0781,301.9688 C1822.0781,301.5313 1822.0625,301.4063 1821.9688,301.25 C1821.8125,300.9844 1821.5313,300.8438 1821.2344,300.8438 C1820.9375,300.8438 1820.7344,300.9375 1820.5156,301.25 L1820.3438,301.1719 Z " fill="#000000"/><text fill="#000000" font-family="sans-serif" font-size="14" lengthAdjust="spacing" textLength="52" x="1832" y="310.3467">Display</text><line style="stroke:#181818;stroke-width:0.5;" x1="1804" x2="1886" y1="321.5" y2="321.5"/><line style="stroke:#181818;stroke-width:0.5;" x1="1804" x2="1886" y1="329.5" y2="329.5"/></g><!--class *--><g id="elem_*"><rect fill="#F1F1F1" height="48" id="*" rx="2.5" ry="2.5" style="stroke:#181818;stroke-width:0.5;" width="39" x="1071.5" y="132"/><ellipse cx="1086.5" cy="148" fill="#ADD1B2" rx="11" ry="11" style="stroke:#181818;stroke-width:1.0;"/><path d="M1088.8438,143.6719 C1087.9063,143.2344 1087.3125,143.0938 1086.4375,143.0938 C1083.8125,143.0938 1081.8125,145.1719 1081.8125,147.8906 L1081.8125,149.0156 C1081.8125,151.5938 1083.9219,153.4844 1086.8125,153.4844 C1088.0313,153.4844 1089.1875,153.1875 1089.9375,152.6406 C1090.5156,152.2344 1090.8438,151.7813 1090.8438,151.3906 C1090.8438,150.9375 1090.4531,150.5469 1089.9844,150.5469 C1089.7656,150.5469 1089.5625,150.625 1089.375,150.8125 C1088.9219,151.2969 1088.9219,151.2969 1088.7344,151.3906 C1088.3125,151.6563 1087.625,151.7813 1086.8594,151.7813 C1084.8125,151.7813 1083.5156,150.6875 1083.5156,148.9844 L1083.5156,147.8906 C1083.5156,146.1094 1084.7656,144.7969 1086.5,144.7969 C1087.0781,144.7969 1087.6875,144.9531 1088.1563,145.2031 C1088.6406,145.4844 1088.8125,145.7031 1088.9063,146.1094 C1088.9688,146.5156 1089,146.6406 1089.1406,146.7656 C1089.2813,146.9063 1089.5156,147.0156 1089.7344,147.0156 C1090,147.0156 1090.2656,146.875 1090.4375,146.6563 C1090.5469,146.5 1090.5781,146.3125 1090.5781,145.8906 L1090.5781,144.4688 C1090.5781,144.0313 1090.5625,143.9063 1090.4688,143.75 C1090.3125,143.4844 1090.0313,143.3438 1089.7344,143.3438 C1089.4375,143.3438 1089.2344,143.4375 1089.0156,143.75 L1088.8438,143.6719 Z " fill="#000000"/><text fill="#000000" font-family="sans-serif" font-size="14" lengthAdjust="spacing" textLength="7" x="1100.5" y="152.8467">*</text><line style="stroke:#181818;stroke-width:0.5;" x1="1072.5" x2="1109.5" y1="164" y2="164"/><line style="stroke:#181818;stroke-width:0.5;" x1="1072.5" x2="1109.5" y1="172" y2="172"/></g><!--class Technology--><g id="elem_Technology"><rect fill="#F1F1F1" height="48" id="Technology" rx="2.5" ry="2.5" style="stroke:#181818;stroke-width:0.5;" width="115" x="999.5" y="431"/><ellipse cx="1014.5" cy="447" fill="#ADD1B2" rx="11" ry="11" style="stroke:#181818;stroke-width:1.0;"/><path d="M1016.8438,442.6719 C1015.9063,442.2344 1015.3125,442.0938 1014.4375,442.0938 C1011.8125,442.0938 1009.8125,444.1719 1009.8125,446.8906 L1009.8125,448.0156 C1009.8125,450.5938 1011.9219,452.4844 1014.8125,452.4844 C1016.0313,452.4844 1017.1875,452.1875 1017.9375,451.6406 C1018.5156,451.2344 1018.8438,450.7813 1018.8438,450.3906 C1018.8438,449.9375 1018.4531,449.5469 1017.9844,449.5469 C1017.7656,449.5469 1017.5625,449.625 1017.375,449.8125 C1016.9219,450.2969 1016.9219,450.2969 1016.7344,450.3906 C1016.3125,450.6563 1015.625,450.7813 1014.8594,450.7813 C1012.8125,450.7813 1011.5156,449.6875 1011.5156,447.9844 L1011.5156,446.8906 C1011.5156,445.1094 1012.7656,443.7969 1014.5,443.7969 C1015.0781,443.7969 1015.6875,443.9531 1016.1563,444.2031 C1016.6406,444.4844 1016.8125,444.7031 1016.9063,445.1094 C1016.9688,445.5156 1017,445.6406 1017.1406,445.7656 C1017.2813,445.9063 1017.5156,446.0156 1017.7344,446.0156 C1018,446.0156 1018.2656,445.875 1018.4375,445.6563 C1018.5469,445.5 1018.5781,445.3125 1018.5781,444.8906 L1018.5781,443.4688 C1018.5781,443.0313 1018.5625,442.9063 1018.4688,442.75 C1018.3125,442.4844 1018.0313,442.3438 1017.7344,442.3438 C1017.4375,442.3438 1017.2344,442.4375 1017.0156,442.75 L1016.8438,442.6719 Z " fill="#000000"/><text fill="#000000" font-family="sans-serif" font-size="14" lengthAdjust="spacing" textLength="83" x="1028.5" y="451.8467">Technology</text><line style="stroke:#181818;stroke-width:0.5;" x1="1000.5" x2="1113.5" y1="463" y2="463"/><line style="stroke:#181818;stroke-width:0.5;" x1="1000.5" x2="1113.5" y1="471" y2="471"/></g><!--class Sports--><g id="elem_Sports"><rect fill="#F1F1F1" height="48" id="Sports" rx="2.5" ry="2.5" style="stroke:#181818;stroke-width:0.5;" width="80" x="1150" y="431"/><ellipse cx="1165" cy="447" fill="#ADD1B2" rx="11" ry="11" style="stroke:#181818;stroke-width:1.0;"/><path d="M1167.3438,442.6719 C1166.4063,442.2344 1165.8125,442.0938 1164.9375,442.0938 C1162.3125,442.0938 1160.3125,444.1719 1160.3125,446.8906 L1160.3125,448.0156 C1160.3125,450.5938 1162.4219,452.4844 1165.3125,452.4844 C1166.5313,452.4844 1167.6875,452.1875 1168.4375,451.6406 C1169.0156,451.2344 1169.3438,450.7813 1169.3438,450.3906 C1169.3438,449.9375 1168.9531,449.5469 1168.4844,449.5469 C1168.2656,449.5469 1168.0625,449.625 1167.875,449.8125 C1167.4219,450.2969 1167.4219,450.2969 1167.2344,450.3906 C1166.8125,450.6563 1166.125,450.7813 1165.3594,450.7813 C1163.3125,450.7813 1162.0156,449.6875 1162.0156,447.9844 L1162.0156,446.8906 C1162.0156,445.1094 1163.2656,443.7969 1165,443.7969 C1165.5781,443.7969 1166.1875,443.9531 1166.6563,444.2031 C1167.1406,444.4844 1167.3125,444.7031 1167.4063,445.1094 C1167.4688,445.5156 1167.5,445.6406 1167.6406,445.7656 C1167.7813,445.9063 1168.0156,446.0156 1168.2344,446.0156 C1168.5,446.0156 1168.7656,445.875 1168.9375,445.6563 C1169.0469,445.5 1169.0781,445.3125 1169.0781,444.8906 L1169.0781,443.4688 C1169.0781,443.0313 1169.0625,442.9063 1168.9688,442.75 C1168.8125,442.4844 1168.5313,442.3438 1168.2344,442.3438 C1167.9375,442.3438 1167.7344,442.4375 1167.5156,442.75 L1167.3438,442.6719 Z " fill="#000000"/><text fill="#000000" font-family="sans-serif" font-size="14" lengthAdjust="spacing" textLength="48" x="1179" y="451.8467">Sports</text><line style="stroke:#181818;stroke-width:0.5;" x1="1151" x2="1229" y1="463" y2="463"/><line style="stroke:#181818;stroke-width:0.5;" x1="1151" x2="1229" y1="471" y2="471"/></g><!--class Research--><g id="elem_Research"><rect fill="#F1F1F1" height="48" id="Research" rx="2.5" ry="2.5" style="stroke:#181818;stroke-width:0.5;" width="98" x="1265" y="431"/><ellipse cx="1280" cy="447" fill="#ADD1B2" rx="11" ry="11" style="stroke:#181818;stroke-width:1.0;"/><path d="M1282.3438,442.6719 C1281.4063,442.2344 1280.8125,442.0938 1279.9375,442.0938 C1277.3125,442.0938 1275.3125,444.1719 1275.3125,446.8906 L1275.3125,448.0156 C1275.3125,450.5938 1277.4219,452.4844 1280.3125,452.4844 C1281.5313,452.4844 1282.6875,452.1875 1283.4375,451.6406 C1284.0156,451.2344 1284.3438,450.7813 1284.3438,450.3906 C1284.3438,449.9375 1283.9531,449.5469 1283.4844,449.5469 C1283.2656,449.5469 1283.0625,449.625 1282.875,449.8125 C1282.4219,450.2969 1282.4219,450.2969 1282.2344,450.3906 C1281.8125,450.6563 1281.125,450.7813 1280.3594,450.7813 C1278.3125,450.7813 1277.0156,449.6875 1277.0156,447.9844 L1277.0156,446.8906 C1277.0156,445.1094 1278.2656,443.7969 1280,443.7969 C1280.5781,443.7969 1281.1875,443.9531 1281.6563,444.2031 C1282.1406,444.4844 1282.3125,444.7031 1282.4063,445.1094 C1282.4688,445.5156 1282.5,445.6406 1282.6406,445.7656 C1282.7813,445.9063 1283.0156,446.0156 1283.2344,446.0156 C1283.5,446.0156 1283.7656,445.875 1283.9375,445.6563 C1284.0469,445.5 1284.0781,445.3125 1284.0781,444.8906 L1284.0781,443.4688 C1284.0781,443.0313 1284.0625,442.9063 1283.9688,442.75 C1283.8125,442.4844 1283.5313,442.3438 1283.2344,442.3438 C1282.9375,442.3438 1282.7344,442.4375 1282.5156,442.75 L1282.3438,442.6719 Z " fill="#000000"/><text fill="#000000" font-family="sans-serif" font-size="14" lengthAdjust="spacing" textLength="66" x="1294" y="451.8467">Research</text><line style="stroke:#181818;stroke-width:0.5;" x1="1266" x2="1362" y1="463" y2="463"/><line style="stroke:#181818;stroke-width:0.5;" x1="1266" x2="1362" y1="471" y2="471"/></g><!--link App to Navbar--><g id="link_App_Navbar"><path codeLine="69" d="M1028.96,55.226 C1023.3,64.219 1017.29,74.792 1013,85 C1006.686,100.041 1003.3863,111.9872 1000.4433,125.8812 " fill="none" id="App-to-Navbar" style="stroke:#181818;stroke-width:1.0;"/><polygon fill="#181818" points="999.2,131.751,1004.9782,123.7752,1000.2361,126.8595,997.1518,122.1175,999.2,131.751" style="stroke:#181818;stroke-width:1.0;"/><polygon fill="#000000" points="1016.1287,98.203,1022.2393,90.9153,1016.7886,88.7154,1016.1287,98.203" style="stroke:#000000;stroke-width:1.0;"/><text fill="#000000" font-family="sans-serif" font-size="13" lengthAdjust="spacing" textLength="30" x="1027" y="98.0669">uses</text></g><!--link App to *--><g id="link_App_*"><path codeLine="70" d="M1053.65,55.135 C1061.88,77.126 1072.0785,104.392 1080.2885,126.348 " fill="none" id="App-to-*" style="stroke:#181818;stroke-width:1.0;"/><polygon fill="#181818" points="1082.39,131.968,1082.9844,122.1371,1080.6388,127.2847,1075.4912,124.9391,1082.39,131.968" style="stroke:#181818;stroke-width:1.0;"/><polygon fill="#000000" points="1077.7518,98.2495,1077.3354,88.748,1071.8301,90.8074,1077.7518,98.2495" style="stroke:#000000;stroke-width:1.0;"/><text fill="#000000" font-family="sans-serif" font-size="13" lengthAdjust="spacing" textLength="41" x="1085" y="98.0669">routes</text></g><!--reverse link Navbar to Login--><g id="link_Navbar_Login"><path codeLine="71" d="M947.8889,158.5157 C846.4449,162.1827 582.315,174.541 360,210 C270.684,224.246 245.197,221.523 162,257 C151.702,261.391 141.265,266.982 131.38,272.917 " fill="none" id="Navbar-backto-Login" style="stroke:#181818;stroke-width:1.0;"/><polygon fill="#181818" points="953.885,158.299,944.7464,154.6267,948.8883,158.4796,945.0354,162.6215,953.885,158.299" style="stroke:#181818;stroke-width:1.0;"/><polygon fill="#000000" points="369.9516,217.8726,360.5863,216.2172,361.4018,222.0382,369.9516,217.8726" style="stroke:#000000;stroke-width:1.0;"/><text fill="#000000" font-family="sans-serif" font-size="13" lengthAdjust="spacing" textLength="30" x="374" y="223.0669">uses</text></g><!--reverse link Navbar to Signup--><g id="link_Navbar_Signup"><path codeLine="72" d="M947.746,158.6326 C860.16,162.2066 655.532,173.892 483,210 C415.863,224.05 398.098,227.868 336,257 C326.268,261.566 316.319,267.04 306.789,272.746 " fill="none" id="Navbar-backto-Signup" style="stroke:#181818;stroke-width:1.0;"/><polygon fill="#181818" points="953.741,158.388,944.5854,154.7583,948.7452,158.5919,944.9116,162.7516,953.741,158.388" style="stroke:#181818;stroke-width:1.0;"/><polygon fill="#000000" points="492.9226,217.69,483.5024,216.382,484.5327,222.1689,492.9226,217.69" style="stroke:#000000;stroke-width:1.0;"/><text fill="#000000" font-family="sans-serif" font-size="13" lengthAdjust="spacing" textLength="30" x="497" y="223.0669">uses</text></g><!--reverse link Navbar to Profile--><g id="link_Navbar_Profile"><path codeLine="73" d="M947.8447,161.5003 C836.2057,172.6503 536.376,206.52 450,257 C435.69,265.363 422.272,278.08 412.053,289.233 " fill="none" id="Navbar-backto-Profile" style="stroke:#181818;stroke-width:1.0;"/><polygon fill="#181818" points="953.815,160.904,944.462,157.8182,948.8398,161.4009,945.2571,165.7786,953.815,160.904" style="stroke:#181818;stroke-width:1.0;"/><polygon fill="#000000" points="610.8637,217.4069,601.3836,216.6457,602.7467,222.3633,610.8637,217.4069" style="stroke:#000000;stroke-width:1.0;"/><text fill="#000000" font-family="sans-serif" font-size="13" lengthAdjust="spacing" textLength="30" x="615" y="223.0669">uses</text></g><!--reverse link Navbar to Article--><g id="link_Navbar_Article"><path codeLine="74" d="M947.9729,161.2821 C872.1709,169.3771 712.763,192.854 590,257 C584.227,260.017 578.464,263.537 572.863,267.315 " fill="none" id="Navbar-backto-Article" style="stroke:#181818;stroke-width:1.0;"/><polygon fill="#181818" points="953.939,160.645,944.5651,157.6233,948.9673,161.1759,945.4146,165.5781,953.939,160.645" style="stroke:#181818;stroke-width:1.0;"/><polygon fill="#000000" points="716.8115,217.2063,707.308,216.8386,708.9069,222.4948,716.8115,217.2063" style="stroke:#000000;stroke-width:1.0;"/><text fill="#000000" font-family="sans-serif" font-size="13" lengthAdjust="spacing" textLength="30" x="721" y="223.0669">uses</text></g><!--reverse link Navbar to ArticlesList--><g id="link_Navbar_ArticlesList"><path codeLine="75" d="M948.1225,170.9586 C896.0525,187.2096 810.187,216.878 738,257 C732.245,260.199 726.435,263.796 720.736,267.583 " fill="none" id="Navbar-backto-ArticlesList" style="stroke:#181818;stroke-width:1.0;"/><polygon fill="#181818" points="953.85,169.171,944.067,168.034,949.0771,170.6606,946.4504,175.6707,953.85,169.171" style="stroke:#181818;stroke-width:1.0;"/><polygon fill="#000000" points="843.6018,216.611,834.1277,217.4435,836.4265,222.8532,843.6018,216.611" style="stroke:#000000;stroke-width:1.0;"/><text fill="#000000" font-family="sans-serif" font-size="13" lengthAdjust="spacing" textLength="30" x="848" y="223.0669">uses</text></g><!--reverse link Navbar to Publish--><g id="link_Navbar_Publish"><path codeLine="76" d="M964.961,184.3167 C940.457,206.5997 907.201,236.841 876.332,264.911 " fill="none" id="Navbar-backto-Publish" style="stroke:#181818;stroke-width:1.0;"/><polygon fill="#181818" points="969.4,180.28,960.0503,183.3757,965.7008,183.6439,965.4326,189.2944,969.4,180.28" style="stroke:#181818;stroke-width:1.0;"/><polygon fill="#000000" points="943.6992,215.2025,935.03,219.1135,938.9845,223.4622,943.6992,215.2025" style="stroke:#000000;stroke-width:1.0;"/><text fill="#000000" font-family="sans-serif" font-size="13" lengthAdjust="spacing" textLength="30" x="949" y="223.0669">uses</text></g><!--reverse link Navbar to EditArticle--><g id="link_Navbar_EditArticle"><path codeLine="77" d="M995,186.28 C995,206.445 995,230.432 995,256.754 " fill="none" id="Navbar-backto-EditArticle" style="stroke:#181818;stroke-width:1.0;"/><polygon fill="#181818" points="995,180.28,991,189.28,995,185.28,999,189.28,995,180.28" style="stroke:#181818;stroke-width:1.0;"/><polygon fill="#000000" points="1000,213.5664,997.0611,222.6115,1002.9389,222.6115,1000,213.5664" style="stroke:#000000;stroke-width:1.0;"/><text fill="#000000" font-family="sans-serif" font-size="13" lengthAdjust="spacing" textLength="30" x="1009" y="223.0669">uses</text></g><!--reverse link Navbar to CategoryComponent--><g id="link_Navbar_CategoryComponent"><path codeLine="78" d="M1028.8815,184.0203 C1056.8315,206.3033 1095.12,236.841 1130.32,264.911 " fill="none" id="Navbar-backto-CategoryComponent" style="stroke:#181818;stroke-width:1.0;"/><polygon fill="#181818" points="1024.19,180.28,1028.7337,189.0181,1028.0996,183.3969,1033.7208,182.7628,1024.19,180.28" style="stroke:#181818;stroke-width:1.0;"/><polygon fill="#000000" points="1082.0908,215.449,1087.3303,223.3862,1090.995,218.7906,1082.0908,215.449" style="stroke:#000000;stroke-width:1.0;"/><text fill="#000000" font-family="sans-serif" font-size="13" lengthAdjust="spacing" textLength="30" x="1095" y="223.0669">uses</text></g><!--reverse link Navbar to About--><g id="link_Navbar_About"><path codeLine="79" d="M1041.7386,175.5716 C1047.7086,177.8406 1048.19,177.958 1054,180 C1161.68,217.861 1201.26,198.051 1299,257 C1313.07,265.483 1326.25,278.208 1336.29,289.334 " fill="none" id="Navbar-backto-About" style="stroke:#181818;stroke-width:1.0;"/><polygon fill="#181818" points="1036.13,173.44,1043.1218,180.3765,1040.8038,175.2164,1045.964,172.8984,1036.13,173.44" style="stroke:#181818;stroke-width:1.0;"/><polygon fill="#000000" points="1237.3358,216.765,1244.7146,222.7653,1246.8323,217.2822,1237.3358,216.765" style="stroke:#000000;stroke-width:1.0;"/><text fill="#000000" font-family="sans-serif" font-size="13" lengthAdjust="spacing" textLength="30" x="1251" y="223.0669">uses</text></g><!--reverse link Navbar to Contact--><g id="link_Navbar_Contact"><path codeLine="80" d="M1041.8188,176.5095 C1047.7288,178.5925 1048.14,178.509 1054,180 C1210.89,219.905 1271.8,172.698 1410,257 C1424.68,265.957 1439.22,278.449 1450.62,289.313 " fill="none" id="Navbar-backto-Contact" style="stroke:#181818;stroke-width:1.0;"/><polygon fill="#181818" points="1036.16,174.515,1043.3186,181.2792,1040.8757,176.1771,1045.9779,173.7342,1036.16,174.515" style="stroke:#181818;stroke-width:1.0;"/><polygon fill="#000000" points="1349.1801,217.2364,1357.1176,222.4754,1358.6811,216.8093,1349.1801,217.2364" style="stroke:#000000;stroke-width:1.0;"/><text fill="#000000" font-family="sans-serif" font-size="13" lengthAdjust="spacing" textLength="30" x="1363" y="223.0669">uses</text></g><!--reverse link Navbar to Home--><g id="link_Navbar_Home"><path codeLine="81" d="M1041.7797,176.6973 C1047.6997,178.7473 1048.11,178.628 1054,180 C1205.19,215.218 1250.26,177.208 1402,210 C1463.28,223.243 1482.04,223.443 1535,257 C1548.64,265.64 1561.48,278.24 1571.32,289.252 " fill="none" id="Navbar-backto-Home" style="stroke:#181818;stroke-width:1.0;"/><polygon fill="#181818" points="1036.11,174.734,1043.3057,181.4588,1040.8347,176.3701,1045.9234,173.8992,1036.11,174.734" style="stroke:#181818;stroke-width:1.0;"/><polygon fill="#000000" points="1474.1093,217.5269,1482.3457,222.2821,1483.5677,216.5327,1474.1093,217.5269" style="stroke:#000000;stroke-width:1.0;"/><text fill="#000000" font-family="sans-serif" font-size="13" lengthAdjust="spacing" textLength="30" x="1488" y="223.0669">uses</text></g><!--reverse link Navbar to Latest--><g id="link_Navbar_Latest"><path codeLine="82" d="M1041.7563,176.8021 C1047.6863,178.8331 1048.1,178.695 1054,180 C1259.68,225.46 1321.56,163.485 1527,210 C1581.66,222.375 1595.44,229.023 1644,257 C1650.1,260.515 1656.25,264.509 1662.24,268.705 " fill="none" id="Navbar-backto-Latest" style="stroke:#181818;stroke-width:1.0;"/><polygon fill="#181818" points="1036.08,174.858,1043.2984,181.5584,1040.8103,176.4781,1045.8905,173.99,1036.08,174.858" style="stroke:#181818;stroke-width:1.0;"/><polygon fill="#000000" points="1586.054,217.8338,1594.5708,222.0663,1595.432,216.2519,1586.054,217.8338" style="stroke:#000000;stroke-width:1.0;"/><text fill="#000000" font-family="sans-serif" font-size="13" lengthAdjust="spacing" textLength="30" x="1600" y="223.0669">uses</text></g><!--reverse link Navbar to Display--><g id="link_Navbar_Display"><path codeLine="83" d="M1041.7482,176.8625 C1047.6682,178.8835 1048.09,178.731 1054,180 C1308.54,234.646 1382.93,163.048 1639,210 C1706.05,222.294 1726.15,222.6 1785,257 C1799.7,265.593 1813.8,278.324 1824.64,289.427 " fill="none" id="Navbar-backto-Display" style="stroke:#181818;stroke-width:1.0;"/><polygon fill="#181818" points="1036.07,174.924,1043.295,181.6172,1040.8019,176.5394,1045.8797,174.0462,1036.07,174.924" style="stroke:#181818;stroke-width:1.0;"/><polygon fill="#000000" points="1721.0509,217.8548,1729.5857,222.0511,1730.4222,216.2331,1721.0509,217.8548" style="stroke:#000000;stroke-width:1.0;"/><text fill="#000000" font-family="sans-serif" font-size="13" lengthAdjust="spacing" textLength="30" x="1735" y="223.0669">uses</text></g><!--reverse link CategoryComponent to Technology--><g id="link_CategoryComponent_Technology"><path codeLine="85" d="M1132.1804,375.1469 C1110.0604,398.3521 1096.88,412.1747 1079.09,430.8335 " fill="none" id="CategoryComponent-backto-Technology" style="stroke:#181818;stroke-width:1.0;"/><polygon fill="none" points="1144.6,362.118,1127.8374,371.0071,1136.5234,379.2868,1144.6,362.118" style="stroke:#181818;stroke-width:1.0;"/></g><!--reverse link CategoryComponent to Sports--><g id="link_CategoryComponent_Sports"><path codeLine="86" d="M1190,380.118 C1190,403.3232 1190,412.1747 1190,430.8335 " fill="none" id="CategoryComponent-backto-Sports" style="stroke:#181818;stroke-width:1.0;"/><polygon fill="none" points="1190,362.118,1184,380.118,1196,380.118,1190,362.118" style="stroke:#181818;stroke-width:1.0;"/></g><!--reverse link CategoryComponent to Research--><g id="link_CategoryComponent_Research"><path codeLine="87" d="M1244.2863,375.5733 C1264.9063,398.7785 1276.82,412.1747 1293.41,430.8335 " fill="none" id="CategoryComponent-backto-Research" style="stroke:#181818;stroke-width:1.0;"/><polygon fill="none" points="1232.33,362.118,1239.8012,379.5588,1248.7714,371.5879,1232.33,362.118" style="stroke:#181818;stroke-width:1.0;"/></g><!--SRC=[dLBRIiGm57plLuHzyaBzW4KMIbtmeSXY_O4qJTj0cXDoKOlwxyPUraOJMVSfd3EPoJcP8HnhZJ8fqLloaIHaB1_mSuNLkbD0ouHh87JTOL5pchkZfHUNtvtILZqphdCabQmLLlwNTL3GC4xNhsVAC3As7CzgMXfiPXLNxPk64ZEL-9M1lccffpZJTS6qELVZO2lET1UY_rZag211UnBxcfdJDucgMayqT_mMr913Bq5GSVQ2MGNMh3yz1s4myLhtq7k-5Ew5yx_qZcd9yJ09VYKmhU55fBibVblaL3JQUTZcQhD5oeqw8bCiKoi3h3bzON09MHXTNFeJdU8KaP_J4aRNGGZV-ErgP9JHj8Z6x5yO7QqCGxEhON0nBOm61hzzJrFqH4adW4Cxn6wK4fJHCVIHQeeLwJu1]--></g></svg>