<?xml version="1.0" encoding="us-ascii" standalone="no"?><svg xmlns="http://www.w3.org/2000/svg" xmlns:xlink="http://www.w3.org/1999/xlink" contentStyleType="text/css" height="548px" preserveAspectRatio="none" style="width:1021px;height:548px;background:#FFFFFF;" version="1.1" viewBox="0 0 1021 548" width="1021px" zoomAndPan="magnify"><defs/><g><rect fill="#FFFFFF" height="288" style="stroke:#181818;stroke-width:1.0;" width="10" x="709.5" y="170.6953"/><rect fill="#FFFFFF" height="170.4688" style="stroke:#181818;stroke-width:1.0;" width="10" x="847" y="199.8281"/><rect fill="#FFFFFF" height="29.1328" style="stroke:#181818;stroke-width:1.0;" width="10" x="981" y="253.0938"/><rect fill="none" height="148.4688" style="stroke:#000000;stroke-width:1.5;" width="382.5" x="631.5" y="214.8281"/><line style="stroke:#181818;stroke-width:0.5;stroke-dasharray:5.0,5.0;" x1="32" x2="32" y1="81.2969" y2="467.6953"/><line style="stroke:#181818;stroke-width:0.5;stroke-dasharray:5.0,5.0;" x1="300" x2="300" y1="81.2969" y2="467.6953"/><line style="stroke:#181818;stroke-width:0.5;stroke-dasharray:5.0,5.0;" x1="514.5" x2="514.5" y1="81.2969" y2="467.6953"/><line style="stroke:#181818;stroke-width:0.5;stroke-dasharray:5.0,5.0;" x1="714.5" x2="714.5" y1="81.2969" y2="467.6953"/><line style="stroke:#181818;stroke-width:0.5;stroke-dasharray:5.0,5.0;" x1="851.5" x2="851.5" y1="81.2969" y2="467.6953"/><line style="stroke:#181818;stroke-width:0.5;stroke-dasharray:5.0,5.0;" x1="986" x2="986" y1="81.2969" y2="467.6953"/><text fill="#000000" font-family="sans-serif" font-size="14" lengthAdjust="spacing" textLength="49" x="5" y="77.9951">Author</text><ellipse cx="32.5" cy="13.5" fill="#E2E2F0" rx="8" ry="8" style="stroke:#181818;stroke-width:0.5;"/><path d="M32.5,21.5 L32.5,48.5 M19.5,29.5 L45.5,29.5 M32.5,48.5 L19.5,63.5 M32.5,48.5 L45.5,63.5 " fill="none" style="stroke:#181818;stroke-width:0.5;"/><text fill="#000000" font-family="sans-serif" font-size="14" lengthAdjust="spacing" textLength="49" x="5" y="479.6904">Author</text><ellipse cx="32.5" cy="491.4922" fill="#E2E2F0" rx="8" ry="8" style="stroke:#181818;stroke-width:0.5;"/><path d="M32.5,499.4922 L32.5,526.4922 M19.5,507.4922 L45.5,507.4922 M32.5,526.4922 L19.5,541.4922 M32.5,526.4922 L45.5,541.4922 " fill="none" style="stroke:#181818;stroke-width:0.5;"/><rect fill="#E2E2F0" height="30.2969" rx="2.5" ry="2.5" style="stroke:#181818;stroke-width:0.5;" width="155" x="223" y="50"/><text fill="#000000" font-family="sans-serif" font-size="14" lengthAdjust="spacing" textLength="141" x="230" y="69.9951">Publish Component</text><rect fill="#E2E2F0" height="30.2969" rx="2.5" ry="2.5" style="stroke:#181818;stroke-width:0.5;" width="155" x="223" y="466.6953"/><text fill="#000000" font-family="sans-serif" font-size="14" lengthAdjust="spacing" textLength="141" x="230" y="486.6904">Publish Component</text><rect fill="#E2E2F0" height="30.2969" rx="2.5" ry="2.5" style="stroke:#181818;stroke-width:0.5;" width="148" x="440.5" y="50"/><text fill="#000000" font-family="sans-serif" font-size="14" lengthAdjust="spacing" textLength="134" x="447.5" y="69.9951">axios (HTTP Client)</text><rect fill="#E2E2F0" height="30.2969" rx="2.5" ry="2.5" style="stroke:#181818;stroke-width:0.5;" width="148" x="440.5" y="466.6953"/><text fill="#000000" font-family="sans-serif" font-size="14" lengthAdjust="spacing" textLength="134" x="447.5" y="486.6904">axios (HTTP Client)</text><rect fill="#E2E2F0" height="30.2969" rx="2.5" ry="2.5" style="stroke:#181818;stroke-width:0.5;" width="146" x="641.5" y="50"/><text fill="#000000" font-family="sans-serif" font-size="14" lengthAdjust="spacing" textLength="132" x="648.5" y="69.9951">artRoutes (Server)</text><rect fill="#E2E2F0" height="30.2969" rx="2.5" ry="2.5" style="stroke:#181818;stroke-width:0.5;" width="146" x="641.5" y="466.6953"/><text fill="#000000" font-family="sans-serif" font-size="14" lengthAdjust="spacing" textLength="132" x="648.5" y="486.6904">artRoutes (Server)</text><rect fill="#E2E2F0" height="30.2969" rx="2.5" ry="2.5" style="stroke:#181818;stroke-width:0.5;" width="109" x="797.5" y="50"/><text fill="#000000" font-family="sans-serif" font-size="14" lengthAdjust="spacing" textLength="95" x="804.5" y="69.9951">Article Model</text><rect fill="#E2E2F0" height="30.2969" rx="2.5" ry="2.5" style="stroke:#181818;stroke-width:0.5;" width="109" x="797.5" y="466.6953"/><text fill="#000000" font-family="sans-serif" font-size="14" lengthAdjust="spacing" textLength="95" x="804.5" y="486.6904">Article Model</text><text fill="#000000" font-family="sans-serif" font-size="14" lengthAdjust="spacing" textLength="21" x="972.5" y="77.9951">DB</text><path d="M968,29 C968,19 986,19 986,19 C986,19 1004,19 1004,29 L1004,55 C1004,65 986,65 986,65 C986,65 968,65 968,55 L968,29 " fill="#E2E2F0" style="stroke:#181818;stroke-width:1.5;"/><path d="M968,29 C968,39 986,39 986,39 C986,39 1004,39 1004,29 " fill="none" style="stroke:#181818;stroke-width:1.5;"/><text fill="#000000" font-family="sans-serif" font-size="14" lengthAdjust="spacing" textLength="21" x="972.5" y="479.6904">DB</text><path d="M968,492.9922 C968,482.9922 986,482.9922 986,482.9922 C986,482.9922 1004,482.9922 1004,492.9922 L1004,518.9922 C1004,528.9922 986,528.9922 986,528.9922 C986,528.9922 968,528.9922 968,518.9922 L968,492.9922 " fill="#E2E2F0" style="stroke:#181818;stroke-width:1.5;"/><path d="M968,492.9922 C968,502.9922 986,502.9922 986,502.9922 C986,502.9922 1004,502.9922 1004,492.9922 " fill="none" style="stroke:#181818;stroke-width:1.5;"/><rect fill="#FFFFFF" height="288" style="stroke:#181818;stroke-width:1.0;" width="10" x="709.5" y="170.6953"/><rect fill="#FFFFFF" height="170.4688" style="stroke:#181818;stroke-width:1.0;" width="10" x="847" y="199.8281"/><rect fill="#FFFFFF" height="29.1328" style="stroke:#181818;stroke-width:1.0;" width="10" x="981" y="253.0938"/><polygon fill="#181818" points="288.5,108.4297,298.5,112.4297,288.5,116.4297,292.5,112.4297" style="stroke:#181818;stroke-width:1.0;"/><line style="stroke:#181818;stroke-width:1.0;" x1="32.5" x2="294.5" y1="112.4297" y2="112.4297"/><text fill="#000000" font-family="sans-serif" font-size="13" lengthAdjust="spacing" textLength="244" x="39.5" y="107.3638">enters article data (title, content, etc.)</text><polygon fill="#181818" points="502.5,137.5625,512.5,141.5625,502.5,145.5625,506.5,141.5625" style="stroke:#181818;stroke-width:1.0;"/><line style="stroke:#181818;stroke-width:1.0;" x1="300.5" x2="508.5" y1="141.5625" y2="141.5625"/><text fill="#000000" font-family="sans-serif" font-size="13" lengthAdjust="spacing" textLength="190" x="307.5" y="136.4966">POST /api/article (article data)</text><polygon fill="#181818" points="697.5,166.6953,707.5,170.6953,697.5,174.6953,701.5,170.6953" style="stroke:#181818;stroke-width:1.0;"/><line style="stroke:#181818;stroke-width:1.0;" x1="514.5" x2="703.5" y1="170.6953" y2="170.6953"/><text fill="#000000" font-family="sans-serif" font-size="13" lengthAdjust="spacing" textLength="176" x="521.5" y="165.6294">HTTP Request (article data)</text><polygon fill="#181818" points="835,195.8281,845,199.8281,835,203.8281,839,199.8281" style="stroke:#181818;stroke-width:1.0;"/><line style="stroke:#181818;stroke-width:1.0;" x1="719.5" x2="841" y1="199.8281" y2="199.8281"/><text fill="#000000" font-family="sans-serif" font-size="13" lengthAdjust="spacing" textLength="84" x="726.5" y="194.7622">validate data</text><path d="M631.5,214.8281 L697.5,214.8281 L697.5,221.9609 L687.5,231.9609 L631.5,231.9609 L631.5,214.8281 " fill="#EEEEEE" style="stroke:#000000;stroke-width:1.5;"/><rect fill="none" height="148.4688" style="stroke:#000000;stroke-width:1.5;" width="382.5" x="631.5" y="214.8281"/><text fill="#000000" font-family="sans-serif" font-size="13" font-weight="bold" lengthAdjust="spacing" textLength="21" x="646.5" y="227.895">alt</text><text fill="#000000" font-family="sans-serif" font-size="11" font-weight="bold" lengthAdjust="spacing" textLength="151" x="712.5" y="227.0386">[validation successful]</text><polygon fill="#181818" points="969,249.0938,979,253.0938,969,257.0938,973,253.0938" style="stroke:#181818;stroke-width:1.0;"/><line style="stroke:#181818;stroke-width:1.0;" x1="857" x2="975" y1="253.0938" y2="253.0938"/><text fill="#000000" font-family="sans-serif" font-size="13" lengthAdjust="spacing" textLength="105" x="864" y="248.0278">save new article</text><polygon fill="#181818" points="868,278.2266,858,282.2266,868,286.2266,864,282.2266" style="stroke:#181818;stroke-width:1.0;"/><line style="stroke:#181818;stroke-width:1.0;stroke-dasharray:2.0,2.0;" x1="862" x2="985" y1="282.2266" y2="282.2266"/><text fill="#000000" font-family="sans-serif" font-size="13" lengthAdjust="spacing" textLength="82" x="874" y="277.1606">article saved</text><polygon fill="#181818" points="730.5,307.3594,720.5,311.3594,730.5,315.3594,726.5,311.3594" style="stroke:#181818;stroke-width:1.0;"/><line style="stroke:#181818;stroke-width:1.0;stroke-dasharray:2.0,2.0;" x1="724.5" x2="846" y1="311.3594" y2="311.3594"/><text fill="#000000" font-family="sans-serif" font-size="13" lengthAdjust="spacing" textLength="72" x="736.5" y="306.2935">article data</text><line style="stroke:#000000;stroke-width:1.0;stroke-dasharray:2.0,2.0;" x1="631.5" x2="1014" y1="320.3594" y2="320.3594"/><text fill="#000000" font-family="sans-serif" font-size="11" font-weight="bold" lengthAdjust="spacing" textLength="120" x="636.5" y="330.5698">[validation failed]</text><polygon fill="#181818" points="730.5,351.2969,720.5,355.2969,730.5,359.2969,726.5,355.2969" style="stroke:#181818;stroke-width:1.0;"/><line style="stroke:#181818;stroke-width:1.0;stroke-dasharray:2.0,2.0;" x1="724.5" x2="846" y1="355.2969" y2="355.2969"/><text fill="#000000" font-family="sans-serif" font-size="13" lengthAdjust="spacing" textLength="97" x="736.5" y="350.231">validation error</text><polygon fill="#181818" points="525.5,387.4297,515.5,391.4297,525.5,395.4297,521.5,391.4297" style="stroke:#181818;stroke-width:1.0;"/><line style="stroke:#181818;stroke-width:1.0;stroke-dasharray:2.0,2.0;" x1="519.5" x2="708.5" y1="391.4297" y2="391.4297"/><text fill="#000000" font-family="sans-serif" font-size="13" lengthAdjust="spacing" textLength="168" x="531.5" y="386.3638">response (success/failure)</text><polygon fill="#181818" points="311.5,416.5625,301.5,420.5625,311.5,424.5625,307.5,420.5625" style="stroke:#181818;stroke-width:1.0;"/><line style="stroke:#181818;stroke-width:1.0;stroke-dasharray:2.0,2.0;" x1="305.5" x2="513.5" y1="420.5625" y2="420.5625"/><text fill="#000000" font-family="sans-serif" font-size="13" lengthAdjust="spacing" textLength="100" x="317.5" y="415.4966">HTTP Response</text><polygon fill="#181818" points="43.5,445.6953,33.5,449.6953,43.5,453.6953,39.5,449.6953" style="stroke:#181818;stroke-width:1.0;"/><line style="stroke:#181818;stroke-width:1.0;stroke-dasharray:2.0,2.0;" x1="37.5" x2="299.5" y1="449.6953" y2="449.6953"/><text fill="#000000" font-family="sans-serif" font-size="13" lengthAdjust="spacing" textLength="208" x="49.5" y="444.6294">display message (success/error)</text><!--SRC=[VP9DRi8m48NtFiM8LI91sMTHYPy5cwe8kC2G3CMIYLDxahQthstYO5EfcyYQVE_vpNYmPcrWrVDL6z6XOLdB3bk6sRu_AscliD6tJhVKyWpGmbZDKVoMsaAnEvtsi57IiMM0Lxx-X1e-w9x9uKSo0vcHZEMSNlcp8dZJ3Qa8-aeeY0OPpsW9jciXxZt0uZLchC058MC1HnUFGy6I5SsXrkvdotCWhbzA4Rjryf2wWltxyGHBxEGowelKg1I12u8Ole8mWWDzzcJvcSUQvO1CIRFJQRIPMgjWG2KRJtjnfdtqZueZ9tKBjgzhilRIAm4PwDstwmei3WGjVSM9E6moTYC4zu75doIn2wzk7DHGBiflokUHJa2GSa-LvBsWLC7nFuU49sFSabBRY2H2Df1ade-7D6JT0hkhYt50ItznRsXwmdHdnXUyInvhuUt2WbNGIDif_86RiyAFn3RaAty1]--></g></svg>