<?xml version="1.0" encoding="us-ascii" standalone="no"?><svg xmlns="http://www.w3.org/2000/svg" xmlns:xlink="http://www.w3.org/1999/xlink" contentStyleType="text/css" height="606px" preserveAspectRatio="none" style="width:1375px;height:606px;background:#FFFFFF;" version="1.1" viewBox="0 0 1375 606" width="1375px" zoomAndPan="magnify"><defs/><g><rect fill="#FFFFFF" height="346.2656" style="stroke:#181818;stroke-width:1.0;" width="10" x="937.5" y="170.6953"/><rect fill="#FFFFFF" height="228.7344" style="stroke:#181818;stroke-width:1.0;" width="10" x="1086.5" y="199.8281"/><rect fill="#FFFFFF" height="29.1328" style="stroke:#181818;stroke-width:1.0;" width="10" x="1209.5" y="253.0938"/><rect fill="none" height="206.7344" style="stroke:#000000;stroke-width:1.5;" width="514.5" x="854" y="214.8281"/><line style="stroke:#181818;stroke-width:0.5;stroke-dasharray:5.0,5.0;" x1="23" x2="23" y1="81.2969" y2="525.9609"/><line style="stroke:#181818;stroke-width:0.5;stroke-dasharray:5.0,5.0;" x1="457" x2="457" y1="81.2969" y2="525.9609"/><line style="stroke:#181818;stroke-width:0.5;stroke-dasharray:5.0,5.0;" x1="701.5" x2="701.5" y1="81.2969" y2="525.9609"/><line style="stroke:#181818;stroke-width:0.5;stroke-dasharray:5.0,5.0;" x1="942" x2="942" y1="81.2969" y2="525.9609"/><line style="stroke:#181818;stroke-width:0.5;stroke-dasharray:5.0,5.0;" x1="1091.5" x2="1091.5" y1="81.2969" y2="525.9609"/><line style="stroke:#181818;stroke-width:0.5;stroke-dasharray:5.0,5.0;" x1="1214.5" x2="1214.5" y1="81.2969" y2="525.9609"/><line style="stroke:#181818;stroke-width:0.5;stroke-dasharray:5.0,5.0;" x1="1300.5" x2="1300.5" y1="81.2969" y2="525.9609"/><text fill="#000000" font-family="sans-serif" font-size="14" lengthAdjust="spacing" textLength="31" x="5" y="77.9951">User</text><ellipse cx="23.5" cy="13.5" fill="#E2E2F0" rx="8" ry="8" style="stroke:#181818;stroke-width:0.5;"/><path d="M23.5,21.5 L23.5,48.5 M10.5,29.5 L36.5,29.5 M23.5,48.5 L10.5,63.5 M23.5,48.5 L36.5,63.5 " fill="none" style="stroke:#181818;stroke-width:0.5;"/><text fill="#000000" font-family="sans-serif" font-size="14" lengthAdjust="spacing" textLength="31" x="5" y="537.9561">User</text><ellipse cx="23.5" cy="549.7578" fill="#E2E2F0" rx="8" ry="8" style="stroke:#181818;stroke-width:0.5;"/><path d="M23.5,557.7578 L23.5,584.7578 M10.5,565.7578 L36.5,565.7578 M23.5,584.7578 L10.5,599.7578 M23.5,584.7578 L36.5,599.7578 " fill="none" style="stroke:#181818;stroke-width:0.5;"/><rect fill="#E2E2F0" height="30.2969" rx="2.5" ry="2.5" style="stroke:#181818;stroke-width:0.5;" width="153" x="381" y="50"/><text fill="#000000" font-family="sans-serif" font-size="14" lengthAdjust="spacing" textLength="139" x="388" y="69.9951">Signup Component</text><rect fill="#E2E2F0" height="30.2969" rx="2.5" ry="2.5" style="stroke:#181818;stroke-width:0.5;" width="153" x="381" y="524.9609"/><text fill="#000000" font-family="sans-serif" font-size="14" lengthAdjust="spacing" textLength="139" x="388" y="544.9561">Signup Component</text><rect fill="#E2E2F0" height="30.2969" rx="2.5" ry="2.5" style="stroke:#181818;stroke-width:0.5;" width="148" x="627.5" y="50"/><text fill="#000000" font-family="sans-serif" font-size="14" lengthAdjust="spacing" textLength="134" x="634.5" y="69.9951">axios (HTTP Client)</text><rect fill="#E2E2F0" height="30.2969" rx="2.5" ry="2.5" style="stroke:#181818;stroke-width:0.5;" width="148" x="627.5" y="524.9609"/><text fill="#000000" font-family="sans-serif" font-size="14" lengthAdjust="spacing" textLength="134" x="634.5" y="544.9561">axios (HTTP Client)</text><rect fill="#E2E2F0" height="30.2969" rx="2.5" ry="2.5" style="stroke:#181818;stroke-width:0.5;" width="157" x="864" y="50"/><text fill="#000000" font-family="sans-serif" font-size="14" lengthAdjust="spacing" textLength="143" x="871" y="69.9951">authRoutes (Server)</text><rect fill="#E2E2F0" height="30.2969" rx="2.5" ry="2.5" style="stroke:#181818;stroke-width:0.5;" width="157" x="864" y="524.9609"/><text fill="#000000" font-family="sans-serif" font-size="14" lengthAdjust="spacing" textLength="143" x="871" y="544.9561">authRoutes (Server)</text><rect fill="#E2E2F0" height="30.2969" rx="2.5" ry="2.5" style="stroke:#181818;stroke-width:0.5;" width="92" x="1045.5" y="50"/><text fill="#000000" font-family="sans-serif" font-size="14" lengthAdjust="spacing" textLength="78" x="1052.5" y="69.9951">User Model</text><rect fill="#E2E2F0" height="30.2969" rx="2.5" ry="2.5" style="stroke:#181818;stroke-width:0.5;" width="92" x="1045.5" y="524.9609"/><text fill="#000000" font-family="sans-serif" font-size="14" lengthAdjust="spacing" textLength="78" x="1052.5" y="544.9561">User Model</text><text fill="#000000" font-family="sans-serif" font-size="14" lengthAdjust="spacing" textLength="21" x="1201" y="77.9951">DB</text><path d="M1196.5,29 C1196.5,19 1214.5,19 1214.5,19 C1214.5,19 1232.5,19 1232.5,29 L1232.5,55 C1232.5,65 1214.5,65 1214.5,65 C1214.5,65 1196.5,65 1196.5,55 L1196.5,29 " fill="#E2E2F0" style="stroke:#181818;stroke-width:1.5;"/><path d="M1196.5,29 C1196.5,39 1214.5,39 1214.5,39 C1214.5,39 1232.5,39 1232.5,29 " fill="none" style="stroke:#181818;stroke-width:1.5;"/><text fill="#000000" font-family="sans-serif" font-size="14" lengthAdjust="spacing" textLength="21" x="1201" y="537.9561">DB</text><path d="M1196.5,551.2578 C1196.5,541.2578 1214.5,541.2578 1214.5,541.2578 C1214.5,541.2578 1232.5,541.2578 1232.5,551.2578 L1232.5,577.2578 C1232.5,587.2578 1214.5,587.2578 1214.5,587.2578 C1214.5,587.2578 1196.5,587.2578 1196.5,577.2578 L1196.5,551.2578 " fill="#E2E2F0" style="stroke:#181818;stroke-width:1.5;"/><path d="M1196.5,551.2578 C1196.5,561.2578 1214.5,561.2578 1214.5,561.2578 C1214.5,561.2578 1232.5,561.2578 1232.5,551.2578 " fill="none" style="stroke:#181818;stroke-width:1.5;"/><rect fill="#E2E2F0" height="30.2969" rx="2.5" ry="2.5" style="stroke:#181818;stroke-width:0.5;" width="116" x="1242.5" y="50"/><text fill="#000000" font-family="sans-serif" font-size="14" lengthAdjust="spacing" textLength="102" x="1249.5" y="69.9951">jsonwebtoken</text><rect fill="#E2E2F0" height="30.2969" rx="2.5" ry="2.5" style="stroke:#181818;stroke-width:0.5;" width="116" x="1242.5" y="524.9609"/><text fill="#000000" font-family="sans-serif" font-size="14" lengthAdjust="spacing" textLength="102" x="1249.5" y="544.9561">jsonwebtoken</text><rect fill="#FFFFFF" height="346.2656" style="stroke:#181818;stroke-width:1.0;" width="10" x="937.5" y="170.6953"/><rect fill="#FFFFFF" height="228.7344" style="stroke:#181818;stroke-width:1.0;" width="10" x="1086.5" y="199.8281"/><rect fill="#FFFFFF" height="29.1328" style="stroke:#181818;stroke-width:1.0;" width="10" x="1209.5" y="253.0938"/><polygon fill="#181818" points="445.5,108.4297,455.5,112.4297,445.5,116.4297,449.5,112.4297" style="stroke:#181818;stroke-width:1.0;"/><line style="stroke:#181818;stroke-width:1.0;" x1="23.5" x2="451.5" y1="112.4297" y2="112.4297"/><text fill="#000000" font-family="sans-serif" font-size="13" lengthAdjust="spacing" textLength="410" x="30.5" y="107.3638">enters registration data (firstName, lastName, email, password)</text><polygon fill="#181818" points="689.5,137.5625,699.5,141.5625,689.5,145.5625,693.5,141.5625" style="stroke:#181818;stroke-width:1.0;"/><line style="stroke:#181818;stroke-width:1.0;" x1="457.5" x2="695.5" y1="141.5625" y2="141.5625"/><text fill="#000000" font-family="sans-serif" font-size="13" lengthAdjust="spacing" textLength="220" x="464.5" y="136.4966">POST /api/users (registration data)</text><polygon fill="#181818" points="925.5,166.6953,935.5,170.6953,925.5,174.6953,929.5,170.6953" style="stroke:#181818;stroke-width:1.0;"/><line style="stroke:#181818;stroke-width:1.0;" x1="701.5" x2="931.5" y1="170.6953" y2="170.6953"/><text fill="#000000" font-family="sans-serif" font-size="13" lengthAdjust="spacing" textLength="210" x="708.5" y="165.6294">HTTP Request (registration data)</text><polygon fill="#181818" points="1074.5,195.8281,1084.5,199.8281,1074.5,203.8281,1078.5,199.8281" style="stroke:#181818;stroke-width:1.0;"/><line style="stroke:#181818;stroke-width:1.0;" x1="947.5" x2="1080.5" y1="199.8281" y2="199.8281"/><text fill="#000000" font-family="sans-serif" font-size="13" lengthAdjust="spacing" textLength="84" x="954.5" y="194.7622">validate data</text><path d="M854,214.8281 L920,214.8281 L920,221.9609 L910,231.9609 L854,231.9609 L854,214.8281 " fill="#EEEEEE" style="stroke:#000000;stroke-width:1.5;"/><rect fill="none" height="206.7344" style="stroke:#000000;stroke-width:1.5;" width="514.5" x="854" y="214.8281"/><text fill="#000000" font-family="sans-serif" font-size="13" font-weight="bold" lengthAdjust="spacing" textLength="21" x="869" y="227.895">alt</text><text fill="#000000" font-family="sans-serif" font-size="11" font-weight="bold" lengthAdjust="spacing" textLength="151" x="935" y="227.0386">[validation successful]</text><polygon fill="#181818" points="1197.5,249.0938,1207.5,253.0938,1197.5,257.0938,1201.5,253.0938" style="stroke:#181818;stroke-width:1.0;"/><line style="stroke:#181818;stroke-width:1.0;" x1="1096.5" x2="1203.5" y1="253.0938" y2="253.0938"/><text fill="#000000" font-family="sans-serif" font-size="13" lengthAdjust="spacing" textLength="94" x="1103.5" y="248.0278">save new user</text><polygon fill="#181818" points="1107.5,278.2266,1097.5,282.2266,1107.5,286.2266,1103.5,282.2266" style="stroke:#181818;stroke-width:1.0;"/><line style="stroke:#181818;stroke-width:1.0;stroke-dasharray:2.0,2.0;" x1="1101.5" x2="1213.5" y1="282.2266" y2="282.2266"/><text fill="#000000" font-family="sans-serif" font-size="13" lengthAdjust="spacing" textLength="71" x="1113.5" y="277.1606">user saved</text><polygon fill="#181818" points="1288.5,307.3594,1298.5,311.3594,1288.5,315.3594,1292.5,311.3594" style="stroke:#181818;stroke-width:1.0;"/><line style="stroke:#181818;stroke-width:1.0;" x1="1096.5" x2="1294.5" y1="311.3594" y2="311.3594"/><text fill="#000000" font-family="sans-serif" font-size="13" lengthAdjust="spacing" textLength="137" x="1103.5" y="306.2935">generateAuthToken()</text><polygon fill="#181818" points="1107.5,336.4922,1097.5,340.4922,1107.5,344.4922,1103.5,340.4922" style="stroke:#181818;stroke-width:1.0;"/><line style="stroke:#181818;stroke-width:1.0;stroke-dasharray:2.0,2.0;" x1="1101.5" x2="1299.5" y1="340.4922" y2="340.4922"/><text fill="#000000" font-family="sans-serif" font-size="13" lengthAdjust="spacing" textLength="36" x="1113.5" y="335.4263">token</text><polygon fill="#181818" points="958.5,365.625,948.5,369.625,958.5,373.625,954.5,369.625" style="stroke:#181818;stroke-width:1.0;"/><line style="stroke:#181818;stroke-width:1.0;stroke-dasharray:2.0,2.0;" x1="952.5" x2="1085.5" y1="369.625" y2="369.625"/><text fill="#000000" font-family="sans-serif" font-size="13" lengthAdjust="spacing" textLength="115" x="964.5" y="364.5591">user data &amp; token</text><line style="stroke:#000000;stroke-width:1.0;stroke-dasharray:2.0,2.0;" x1="854" x2="1368.5" y1="378.625" y2="378.625"/><text fill="#000000" font-family="sans-serif" font-size="11" font-weight="bold" lengthAdjust="spacing" textLength="120" x="859" y="388.8354">[validation failed]</text><polygon fill="#181818" points="958.5,409.5625,948.5,413.5625,958.5,417.5625,954.5,413.5625" style="stroke:#181818;stroke-width:1.0;"/><line style="stroke:#181818;stroke-width:1.0;stroke-dasharray:2.0,2.0;" x1="952.5" x2="1085.5" y1="413.5625" y2="413.5625"/><text fill="#000000" font-family="sans-serif" font-size="13" lengthAdjust="spacing" textLength="97" x="964.5" y="408.4966">validation error</text><polygon fill="#181818" points="712.5,445.6953,702.5,449.6953,712.5,453.6953,708.5,449.6953" style="stroke:#181818;stroke-width:1.0;"/><line style="stroke:#181818;stroke-width:1.0;stroke-dasharray:2.0,2.0;" x1="706.5" x2="936.5" y1="449.6953" y2="449.6953"/><text fill="#000000" font-family="sans-serif" font-size="13" lengthAdjust="spacing" textLength="212" x="718.5" y="444.6294">response (success/failure, token)</text><polygon fill="#181818" points="468.5,474.8281,458.5,478.8281,468.5,482.8281,464.5,478.8281" style="stroke:#181818;stroke-width:1.0;"/><line style="stroke:#181818;stroke-width:1.0;stroke-dasharray:2.0,2.0;" x1="462.5" x2="700.5" y1="478.8281" y2="478.8281"/><text fill="#000000" font-family="sans-serif" font-size="13" lengthAdjust="spacing" textLength="100" x="474.5" y="473.7622">HTTP Response</text><polygon fill="#181818" points="34.5,503.9609,24.5,507.9609,34.5,511.9609,30.5,507.9609" style="stroke:#181818;stroke-width:1.0;"/><line style="stroke:#181818;stroke-width:1.0;stroke-dasharray:2.0,2.0;" x1="28.5" x2="456.5" y1="507.9609" y2="507.9609"/><text fill="#000000" font-family="sans-serif" font-size="13" lengthAdjust="spacing" textLength="208" x="40.5" y="502.895">display message (success/error)</text><!--SRC=[TPDDJyCm38Rl-HKM1zHActRl0OcF0qBYGwo8izTw8v0b9Kut-FSuMTUF0PUgJHw_jb-xM0NduON9gmPzq9Lkq0OuM-gDRHkuTjl6MRBX393XS3W5yKixXkosB9_WscX1yyHUnlCJj0rlpwuD9FoI_8vyX_RdKpvM1VUk9fEm-9c-L8q1LyW4DrVJY7TsTa-hu3x8ffYxrrAff3E_wCelG6eap-1fepbu3DfPY9AGhRNdy81Rce71unjjKPiPDCYyTxxELUUDAAOc2tXwN9Qmm4OlMexAsI_fN2KqnVJT5f1SUwRFbZZy6OLLq3iCDFPeU8rolIi5xD3eEi8nTWWTV4CJZb1CmMrL4VEwDGe6AehUN1N0k2Emj8VOam2zdfWEye3vD7l4Kb0jrpLDyOcw3AM03LcILYbsKyPvPRbmSdMgcuOvbJXnCMLE0pplQ3Ao7ADErpB1LDV_8YEQl7TUaQtLg8t1nR7_mmvuOlbJ96tMsRg8ILil2vHgwZTWj8ZT-0-1_LfrxHTGQsuCViDMr70pKau5vZy0]--></g></svg>