<?xml version="1.0" encoding="us-ascii" standalone="no"?><svg xmlns="http://www.w3.org/2000/svg" xmlns:xlink="http://www.w3.org/1999/xlink" contentStyleType="text/css" height="350px" preserveAspectRatio="none" style="width:554px;height:350px;background:#FFFFFF;" version="1.1" viewBox="0 0 554 350" width="554px" zoomAndPan="magnify"><defs/><g><!--class User--><g id="elem_User"><rect codeLine="1" fill="#F1F1F1" height="129.4844" id="User" rx="2.5" ry="2.5" style="stroke:#181818;stroke-width:0.5;" width="181" x="96.5" y="15.5"/><ellipse cx="167.25" cy="31.5" fill="#ADD1B2" rx="11" ry="11" style="stroke:#181818;stroke-width:1.0;"/><path d="M169.5938,27.1719 C168.6563,26.7344 168.0625,26.5938 167.1875,26.5938 C164.5625,26.5938 162.5625,28.6719 162.5625,31.3906 L162.5625,32.5156 C162.5625,35.0938 164.6719,36.9844 167.5625,36.9844 C168.7813,36.9844 169.9375,36.6875 170.6875,36.1406 C171.2656,35.7344 171.5938,35.2813 171.5938,34.8906 C171.5938,34.4375 171.2031,34.0469 170.7344,34.0469 C170.5156,34.0469 170.3125,34.125 170.125,34.3125 C169.6719,34.7969 169.6719,34.7969 169.4844,34.8906 C169.0625,35.1563 168.375,35.2813 167.6094,35.2813 C165.5625,35.2813 164.2656,34.1875 164.2656,32.4844 L164.2656,31.3906 C164.2656,29.6094 165.5156,28.2969 167.25,28.2969 C167.8281,28.2969 168.4375,28.4531 168.9063,28.7031 C169.3906,28.9844 169.5625,29.2031 169.6563,29.6094 C169.7188,30.0156 169.75,30.1406 169.8906,30.2656 C170.0313,30.4063 170.2656,30.5156 170.4844,30.5156 C170.75,30.5156 171.0156,30.375 171.1875,30.1563 C171.2969,30 171.3281,29.8125 171.3281,29.3906 L171.3281,27.9688 C171.3281,27.5313 171.3125,27.4063 171.2188,27.25 C171.0625,26.9844 170.7813,26.8438 170.4844,26.8438 C170.1875,26.8438 169.9844,26.9375 169.7656,27.25 L169.5938,27.1719 Z " fill="#000000"/><text fill="#000000" font-family="sans-serif" font-size="14" lengthAdjust="spacing" textLength="31" x="187.75" y="36.3467">User</text><line style="stroke:#181818;stroke-width:0.5;" x1="97.5" x2="276.5" y1="47.5" y2="47.5"/><rect fill="none" height="6" style="stroke:#C82930;stroke-width:1.0;" width="6" x="104.5" y="58.1484"/><text fill="#000000" font-family="sans-serif" font-size="14" lengthAdjust="spacing" textLength="124" x="116.5" y="64.4951">firstName: String</text><rect fill="none" height="6" style="stroke:#C82930;stroke-width:1.0;" width="6" x="104.5" y="74.4453"/><text fill="#000000" font-family="sans-serif" font-size="14" lengthAdjust="spacing" textLength="120" x="116.5" y="80.792">lastName: String</text><rect fill="none" height="6" style="stroke:#C82930;stroke-width:1.0;" width="6" x="104.5" y="90.7422"/><text fill="#000000" font-family="sans-serif" font-size="14" lengthAdjust="spacing" textLength="92" x="116.5" y="97.0889">email: String</text><rect fill="none" height="6" style="stroke:#C82930;stroke-width:1.0;" width="6" x="104.5" y="107.0391"/><text fill="#000000" font-family="sans-serif" font-size="14" lengthAdjust="spacing" textLength="120" x="116.5" y="113.3857">password: String</text><line style="stroke:#181818;stroke-width:0.5;" x1="97.5" x2="276.5" y1="120.6875" y2="120.6875"/><ellipse cx="107.5" cy="134.3359" fill="#84BE84" rx="3" ry="3" style="stroke:#038048;stroke-width:1.0;"/><text fill="#000000" font-family="sans-serif" font-size="14" lengthAdjust="spacing" textLength="155" x="116.5" y="137.6826">generateAuthToken()</text></g><!--class Article--><g id="elem_Article"><rect codeLine="9" fill="#F1F1F1" height="145.7813" id="Article" rx="2.5" ry="2.5" style="stroke:#181818;stroke-width:0.5;" width="161" x="386.5" y="7"/><ellipse cx="438.75" cy="23" fill="#ADD1B2" rx="11" ry="11" style="stroke:#181818;stroke-width:1.0;"/><path d="M441.0938,18.6719 C440.1563,18.2344 439.5625,18.0938 438.6875,18.0938 C436.0625,18.0938 434.0625,20.1719 434.0625,22.8906 L434.0625,24.0156 C434.0625,26.5938 436.1719,28.4844 439.0625,28.4844 C440.2813,28.4844 441.4375,28.1875 442.1875,27.6406 C442.7656,27.2344 443.0938,26.7813 443.0938,26.3906 C443.0938,25.9375 442.7031,25.5469 442.2344,25.5469 C442.0156,25.5469 441.8125,25.625 441.625,25.8125 C441.1719,26.2969 441.1719,26.2969 440.9844,26.3906 C440.5625,26.6563 439.875,26.7813 439.1094,26.7813 C437.0625,26.7813 435.7656,25.6875 435.7656,23.9844 L435.7656,22.8906 C435.7656,21.1094 437.0156,19.7969 438.75,19.7969 C439.3281,19.7969 439.9375,19.9531 440.4063,20.2031 C440.8906,20.4844 441.0625,20.7031 441.1563,21.1094 C441.2188,21.5156 441.25,21.6406 441.3906,21.7656 C441.5313,21.9063 441.7656,22.0156 441.9844,22.0156 C442.25,22.0156 442.5156,21.875 442.6875,21.6563 C442.7969,21.5 442.8281,21.3125 442.8281,20.8906 L442.8281,19.4688 C442.8281,19.0313 442.8125,18.9063 442.7188,18.75 C442.5625,18.4844 442.2813,18.3438 441.9844,18.3438 C441.6875,18.3438 441.4844,18.4375 441.2656,18.75 L441.0938,18.6719 Z " fill="#000000"/><text fill="#000000" font-family="sans-serif" font-size="14" lengthAdjust="spacing" textLength="48" x="459.25" y="27.8467">Article</text><line style="stroke:#181818;stroke-width:0.5;" x1="387.5" x2="546.5" y1="39" y2="39"/><rect fill="none" height="6" style="stroke:#C82930;stroke-width:1.0;" width="6" x="394.5" y="49.6484"/><text fill="#000000" font-family="sans-serif" font-size="14" lengthAdjust="spacing" textLength="84" x="406.5" y="55.9951">title: String</text><rect fill="none" height="6" style="stroke:#C82930;stroke-width:1.0;" width="6" x="394.5" y="65.9453"/><text fill="#000000" font-family="sans-serif" font-size="14" lengthAdjust="spacing" textLength="93" x="406.5" y="72.292">name: String</text><rect fill="none" height="6" style="stroke:#C82930;stroke-width:1.0;" width="6" x="394.5" y="82.2422"/><text fill="#000000" font-family="sans-serif" font-size="14" lengthAdjust="spacing" textLength="117" x="406.5" y="88.5889">category: String</text><rect fill="none" height="6" style="stroke:#C82930;stroke-width:1.0;" width="6" x="394.5" y="98.5391"/><text fill="#000000" font-family="sans-serif" font-size="14" lengthAdjust="spacing" textLength="135" x="406.5" y="104.8857">description: String</text><rect fill="none" height="6" style="stroke:#C82930;stroke-width:1.0;" width="6" x="394.5" y="114.8359"/><text fill="#000000" font-family="sans-serif" font-size="14" lengthAdjust="spacing" textLength="99" x="406.5" y="121.1826">article: String</text><rect fill="none" height="6" style="stroke:#C82930;stroke-width:1.0;" width="6" x="394.5" y="131.1328"/><text fill="#000000" font-family="sans-serif" font-size="14" lengthAdjust="spacing" textLength="92" x="406.5" y="137.4795">email: String</text><line style="stroke:#181818;stroke-width:0.5;" x1="387.5" x2="546.5" y1="144.7813" y2="144.7813"/></g><!--class userRoutes--><g id="elem_userRoutes"><rect codeLine="18" fill="#F1F1F1" height="80.5938" id="userRoutes" rx="2.5" ry="2.5" style="stroke:#181818;stroke-width:0.5;" width="114" x="7" y="246"/><ellipse cx="22.9" cy="262" fill="#ADD1B2" rx="11" ry="11" style="stroke:#181818;stroke-width:1.0;"/><path d="M25.2438,257.6719 C24.3063,257.2344 23.7125,257.0938 22.8375,257.0938 C20.2125,257.0938 18.2125,259.1719 18.2125,261.8906 L18.2125,263.0156 C18.2125,265.5938 20.3219,267.4844 23.2125,267.4844 C24.4313,267.4844 25.5875,267.1875 26.3375,266.6406 C26.9156,266.2344 27.2438,265.7813 27.2438,265.3906 C27.2438,264.9375 26.8531,264.5469 26.3844,264.5469 C26.1656,264.5469 25.9625,264.625 25.775,264.8125 C25.3219,265.2969 25.3219,265.2969 25.1344,265.3906 C24.7125,265.6563 24.025,265.7813 23.2594,265.7813 C21.2125,265.7813 19.9156,264.6875 19.9156,262.9844 L19.9156,261.8906 C19.9156,260.1094 21.1656,258.7969 22.9,258.7969 C23.4781,258.7969 24.0875,258.9531 24.5563,259.2031 C25.0406,259.4844 25.2125,259.7031 25.3063,260.1094 C25.3688,260.5156 25.4,260.6406 25.5406,260.7656 C25.6813,260.9063 25.9156,261.0156 26.1344,261.0156 C26.4,261.0156 26.6656,260.875 26.8375,260.6563 C26.9469,260.5 26.9781,260.3125 26.9781,259.8906 L26.9781,258.4688 C26.9781,258.0313 26.9625,257.9063 26.8688,257.75 C26.7125,257.4844 26.4313,257.3438 26.1344,257.3438 C25.8375,257.3438 25.6344,257.4375 25.4156,257.75 L25.2438,257.6719 Z " fill="#000000"/><text fill="#000000" font-family="sans-serif" font-size="14" lengthAdjust="spacing" textLength="80" x="37.1" y="266.8467">userRoutes</text><line style="stroke:#181818;stroke-width:0.5;" x1="8" x2="120" y1="278" y2="278"/><line style="stroke:#181818;stroke-width:0.5;" x1="8" x2="120" y1="286" y2="286"/><ellipse cx="18" cy="299.6484" fill="#84BE84" rx="3" ry="3" style="stroke:#038048;stroke-width:1.0;"/><text fill="#000000" font-family="sans-serif" font-size="14" lengthAdjust="spacing" textLength="66" x="27" y="302.9951">getUser()</text><ellipse cx="18" cy="315.9453" fill="#84BE84" rx="3" ry="3" style="stroke:#038048;stroke-width:1.0;"/><text fill="#000000" font-family="sans-serif" font-size="14" lengthAdjust="spacing" textLength="88" x="27" y="319.292">createUser()</text></g><!--class authRoutes--><g id="elem_authRoutes"><rect codeLine="23" fill="#F1F1F1" height="64.2969" id="authRoutes" rx="2.5" ry="2.5" style="stroke:#181818;stroke-width:0.5;" width="160" x="156" y="254.5"/><ellipse cx="191.7" cy="270.5" fill="#ADD1B2" rx="11" ry="11" style="stroke:#181818;stroke-width:1.0;"/><path d="M194.0438,266.1719 C193.1063,265.7344 192.5125,265.5938 191.6375,265.5938 C189.0125,265.5938 187.0125,267.6719 187.0125,270.3906 L187.0125,271.5156 C187.0125,274.0938 189.1219,275.9844 192.0125,275.9844 C193.2313,275.9844 194.3875,275.6875 195.1375,275.1406 C195.7156,274.7344 196.0438,274.2813 196.0438,273.8906 C196.0438,273.4375 195.6531,273.0469 195.1844,273.0469 C194.9656,273.0469 194.7625,273.125 194.575,273.3125 C194.1219,273.7969 194.1219,273.7969 193.9344,273.8906 C193.5125,274.1563 192.825,274.2813 192.0594,274.2813 C190.0125,274.2813 188.7156,273.1875 188.7156,271.4844 L188.7156,270.3906 C188.7156,268.6094 189.9656,267.2969 191.7,267.2969 C192.2781,267.2969 192.8875,267.4531 193.3563,267.7031 C193.8406,267.9844 194.0125,268.2031 194.1063,268.6094 C194.1688,269.0156 194.2,269.1406 194.3406,269.2656 C194.4813,269.4063 194.7156,269.5156 194.9344,269.5156 C195.2,269.5156 195.4656,269.375 195.6375,269.1563 C195.7469,269 195.7781,268.8125 195.7781,268.3906 L195.7781,266.9688 C195.7781,266.5313 195.7625,266.4063 195.6688,266.25 C195.5125,265.9844 195.2313,265.8438 194.9344,265.8438 C194.6375,265.8438 194.4344,265.9375 194.2156,266.25 L194.0438,266.1719 Z " fill="#000000"/><text fill="#000000" font-family="sans-serif" font-size="14" lengthAdjust="spacing" textLength="82" x="210.3" y="275.3467">authRoutes</text><line style="stroke:#181818;stroke-width:0.5;" x1="157" x2="315" y1="286.5" y2="286.5"/><line style="stroke:#181818;stroke-width:0.5;" x1="157" x2="315" y1="294.5" y2="294.5"/><ellipse cx="167" cy="308.1484" fill="#84BE84" rx="3" ry="3" style="stroke:#038048;stroke-width:1.0;"/><text fill="#000000" font-family="sans-serif" font-size="14" lengthAdjust="spacing" textLength="134" x="176" y="311.4951">authenticateUser()</text></g><!--class artRoutes--><g id="elem_artRoutes"><rect codeLine="27" fill="#F1F1F1" height="113.1875" id="artRoutes" rx="2.5" ry="2.5" style="stroke:#181818;stroke-width:0.5;" width="135" x="399.5" y="230"/><ellipse cx="428.9" cy="246" fill="#ADD1B2" rx="11" ry="11" style="stroke:#181818;stroke-width:1.0;"/><path d="M431.2438,241.6719 C430.3063,241.2344 429.7125,241.0938 428.8375,241.0938 C426.2125,241.0938 424.2125,243.1719 424.2125,245.8906 L424.2125,247.0156 C424.2125,249.5938 426.3219,251.4844 429.2125,251.4844 C430.4313,251.4844 431.5875,251.1875 432.3375,250.6406 C432.9156,250.2344 433.2438,249.7813 433.2438,249.3906 C433.2438,248.9375 432.8531,248.5469 432.3844,248.5469 C432.1656,248.5469 431.9625,248.625 431.775,248.8125 C431.3219,249.2969 431.3219,249.2969 431.1344,249.3906 C430.7125,249.6563 430.025,249.7813 429.2594,249.7813 C427.2125,249.7813 425.9156,248.6875 425.9156,246.9844 L425.9156,245.8906 C425.9156,244.1094 427.1656,242.7969 428.9,242.7969 C429.4781,242.7969 430.0875,242.9531 430.5563,243.2031 C431.0406,243.4844 431.2125,243.7031 431.3063,244.1094 C431.3688,244.5156 431.4,244.6406 431.5406,244.7656 C431.6813,244.9063 431.9156,245.0156 432.1344,245.0156 C432.4,245.0156 432.6656,244.875 432.8375,244.6563 C432.9469,244.5 432.9781,244.3125 432.9781,243.8906 L432.9781,242.4688 C432.9781,242.0313 432.9625,241.9063 432.8688,241.75 C432.7125,241.4844 432.4313,241.3438 432.1344,241.3438 C431.8375,241.3438 431.6344,241.4375 431.4156,241.75 L431.2438,241.6719 Z " fill="#000000"/><text fill="#000000" font-family="sans-serif" font-size="14" lengthAdjust="spacing" textLength="71" x="446.1" y="250.8467">artRoutes</text><line style="stroke:#181818;stroke-width:0.5;" x1="400.5" x2="533.5" y1="262" y2="262"/><line style="stroke:#181818;stroke-width:0.5;" x1="400.5" x2="533.5" y1="270" y2="270"/><ellipse cx="410.5" cy="283.6484" fill="#84BE84" rx="3" ry="3" style="stroke:#038048;stroke-width:1.0;"/><text fill="#000000" font-family="sans-serif" font-size="14" lengthAdjust="spacing" textLength="83" x="419.5" y="286.9951">getArticle()</text><ellipse cx="410.5" cy="299.9453" fill="#84BE84" rx="3" ry="3" style="stroke:#038048;stroke-width:1.0;"/><text fill="#000000" font-family="sans-serif" font-size="14" lengthAdjust="spacing" textLength="105" x="419.5" y="303.292">createArticle()</text><ellipse cx="410.5" cy="316.2422" fill="#84BE84" rx="3" ry="3" style="stroke:#038048;stroke-width:1.0;"/><text fill="#000000" font-family="sans-serif" font-size="14" lengthAdjust="spacing" textLength="109" x="419.5" y="319.5889">updateArticle()</text><ellipse cx="410.5" cy="332.5391" fill="#84BE84" rx="3" ry="3" style="stroke:#038048;stroke-width:1.0;"/><text fill="#000000" font-family="sans-serif" font-size="14" lengthAdjust="spacing" textLength="105" x="419.5" y="335.8857">deleteArticle()</text></g><!--reverse link User to userRoutes--><g id="link_User_userRoutes"><path codeLine="34" d="M145.6635,149.7256 C125.7765,182.7896 105.1774,217.038 87.9048,245.7558 " fill="none" id="User-backto-userRoutes" style="stroke:#181818;stroke-width:1.0;"/><polygon fill="#181818" points="148.756,144.584,140.6895,150.2347,146.1789,148.8687,147.545,154.3581,148.756,144.584" style="stroke:#181818;stroke-width:1.0;"/><polygon fill="#000000" points="128.4229,195.8511,135.6034,189.6148,130.5664,186.5852,128.4229,195.8511" style="stroke:#000000;stroke-width:1.0;"/><text fill="#000000" font-family="sans-serif" font-size="13" lengthAdjust="spacing" textLength="29" x="140" y="196.0669">data</text></g><!--reverse link User to authRoutes--><g id="link_User_authRoutes"><path codeLine="35" d="M203.6332,150.4188 C212.3712,186.8838 221.553,225.207 228.514,254.2583 " fill="none" id="User-backto-authRoutes" style="stroke:#181818;stroke-width:1.0;"/><polygon fill="#181818" points="202.235,144.584,200.4424,154.2683,203.4001,149.4463,208.2221,152.4041,202.235,144.584" style="stroke:#181818;stroke-width:1.0;"/><polygon fill="#000000" points="221.1651,196.4288,221.9155,186.9479,216.1994,188.3175,221.1651,196.4288" style="stroke:#000000;stroke-width:1.0;"/><text fill="#000000" font-family="sans-serif" font-size="13" lengthAdjust="spacing" textLength="29" x="229" y="196.0669">data</text></g><!--reverse link Article to artRoutes--><g id="link_Article_artRoutes"><path codeLine="36" d="M467,159.099 C467,184.283 467,206.146 467,229.789 " fill="none" id="Article-backto-artRoutes" style="stroke:#181818;stroke-width:1.0;"/><polygon fill="#181818" points="467,153.099,463,162.099,467,158.099,471,162.099,467,153.099" style="stroke:#181818;stroke-width:1.0;"/><polygon fill="#000000" points="472,196.5664,474.9389,187.5213,469.0611,187.5213,472,196.5664" style="stroke:#000000;stroke-width:1.0;"/><text fill="#000000" font-family="sans-serif" font-size="13" lengthAdjust="spacing" textLength="29" x="481" y="196.0669">data</text></g><!--SRC=[TP5B3i8m34JtFKMM8DGBL0Yf5s31vm1HQaf4cbIEAuGGTyVzuXPO-jcU6IV6wHZLEGAgPw9KUh4OQQyhoDIHqFgoXJppnQ3IrabGiz0zO27OfWGFg0doXgwdS0E_MYUl936TQOvaZOFUboovcRvV-1cMAGC-92iW6hGrsU0brhtm_xHJX8RlFeI687OfE2-rJy4fkJ08x3dKquhcK-HAMuDdmr-pI0lruMPfC4DDNInH0GuaOlNkkxPfAlDdYZUrsdsQ8kdK7D-ywq_fnlOR]--></g></svg>